<?xml version="1.0" standalone="no"?>
<!DOCTYPE svg PUBLIC "-//W3C//DTD SVG 1.1//EN" "http://www.w3.org/Graphics/SVG/1.1/DTD/svg11.dtd" >
<svg xmlns="http://www.w3.org/2000/svg" xmlns:xlink="http://www.w3.org/1999/xlink" version="1.1">
<metadata></metadata>
<defs>
<font id="thesansregular" horiz-adv-x="1126" >
<font-face units-per-em="2048" ascent="1638" descent="-410" />
<missing-glyph horiz-adv-x="446" />
<glyph horiz-adv-x="0" />
<glyph unicode="&#xd;" horiz-adv-x="446" />
<glyph unicode=" "  horiz-adv-x="446" />
<glyph unicode="&#x09;" horiz-adv-x="446" />
<glyph unicode="&#xa0;" horiz-adv-x="446" />
<glyph unicode="!" horiz-adv-x="661" d="M160 152q0 76 53 127t131 51t131 -51t53 -127q0 -74 -53 -125.5t-131 -51.5t-131 51.5t-53 125.5zM164 1456h366l-45 -1044h-272z" />
<glyph unicode="&#x22;" horiz-adv-x="880" d="M78 1442h309l-37 -553h-233zM494 1442h309l-37 -553h-234z" />
<glyph unicode="#" d="M49 336v215h164l23 235h-142v218h164l35 327h223l-35 -327h232l35 327h225l-35 -327h139v-218h-162l-24 -235h141v-215h-164l-34 -336h-224l35 336h-231l-35 -336h-223l34 336h-141zM436 551h232l22 235h-229z" />
<glyph unicode="$" d="M131 930q0 68 22.5 128t64.5 109.5t100.5 84t130.5 51.5v192h219v-176q51 -2 102 -7t104 -18l-22 -260q-63 18 -120.5 25.5t-104.5 7.5q-92 0 -131 -31.5t-39 -77.5q0 -43 39 -69.5t98 -49t128 -49t128 -69.5t98 -111t39 -172q0 -139 -90 -245.5t-246 -147.5v-219h-221 v205q-66 0 -125 6t-119 16l23 277q66 -23 130 -32t124 -9q88 0 140 29.5t52 91.5q0 47 -38.5 74.5t-97 50t-126 48t-126 67.5t-97.5 107.5t-39 172.5z" />
<glyph unicode="%" horiz-adv-x="1570" d="M72 1020q0 76 25.5 138.5t70.5 106.5t104.5 68.5t126.5 24.5q139 0 227.5 -78t88.5 -240q0 -78 -26.5 -142t-72 -109.5t-104.5 -70t-127 -24.5q-152 0 -232.5 88t-80.5 238zM168 92l1032 1284l195 -141l-1033 -1284zM301 1028q0 -84 26.5 -112.5t67.5 -28.5 q35 0 62.5 34.5t27.5 104.5q0 84 -23.5 111.5t-66.5 27.5q-39 0 -66.5 -34.5t-27.5 -102.5zM856 299q0 76 25.5 138.5t70.5 106.5t105.5 68.5t128.5 24.5q137 0 225 -78t88 -240q0 -78 -26.5 -142t-71.5 -109t-104.5 -70t-127.5 -25q-152 0 -232.5 88.5t-80.5 237.5z M1085 307q0 -84 27 -112.5t68 -28.5q37 0 64.5 34.5t27.5 104.5q0 84 -24.5 111.5t-67.5 27.5q-39 0 -67 -34.5t-28 -102.5z" />
<glyph unicode="&#x26;" horiz-adv-x="1634" d="M86 387q0 129 65.5 227.5t176.5 184.5q-86 102 -125 184t-39 174q0 72 28.5 136.5t84 113.5t137.5 77.5t186 28.5q190 0 289.5 -85t99.5 -230q0 -111 -58.5 -204t-178.5 -189q66 -59 149.5 -130t169.5 -136v-2q57 92 86 201.5t25 213.5h311q2 -154 -45 -306t-139 -279 q61 -45 132.5 -96.5t125.5 -86.5l-207 -237q-33 23 -71 49.5t-74.5 53t-70.5 51t-59 42.5q-96 -72 -228 -121t-296 -49q-127 0 -216 34t-147.5 91.5t-85 132t-26.5 156.5zM410 424q0 -35 13 -67.5t39.5 -58.5t63.5 -41t86 -15q70 0 132.5 21t109.5 52q-45 37 -92 76t-92 78 t-85 76t-71 65q-104 -96 -104 -186zM473 1174q0 -37 20.5 -84.5t73.5 -106.5q53 45 84 92.5t31 102.5q0 43 -24.5 73.5t-77.5 30.5q-47 0 -77 -30.5t-30 -77.5z" />
<glyph unicode="'" horiz-adv-x="464" d="M78 1442h309l-37 -553h-233z" />
<glyph unicode="(" horiz-adv-x="630" d="M82 584q0 256 70.5 517t236.5 519l232 -104q-111 -201 -170.5 -433.5t-59.5 -488.5q0 -260 59.5 -493.5t176.5 -442.5l-240 -104q-166 260 -235.5 515t-69.5 515z" />
<glyph unicode=")" horiz-adv-x="630" d="M8 1513l240 107q164 -262 232.5 -516t68.5 -516q0 -256 -70.5 -516t-236.5 -518l-232 102q113 203 172.5 435.5t59.5 486.5q0 260 -59.5 493.5t-174.5 441.5z" />
<glyph unicode="*" horiz-adv-x="800" d="M53 1083l207 74l-207 76l109 186l168 -141l-41 217h219l-39 -217l168 141l108 -186l-206 -76l206 -74l-110 -188l-166 141l39 -215h-219l39 215l-168 -139z" />
<glyph unicode="+" d="M76 479v262h338v359h297v-359h340v-262h-340v-362h-297v362h-338z" />
<glyph unicode="," horiz-adv-x="567" d="M59 -266q53 57 83 104t39 86t-2 72t-40 65q-33 39 -39 89.5t13.5 95.5t61.5 75.5t108 30.5q55 0 99 -28.5t68.5 -79.5t25.5 -122t-27.5 -152t-92 -170t-170.5 -179z" />
<glyph unicode="-" horiz-adv-x="690" d="M86 430v250h516v-250h-516z" />
<glyph unicode="." horiz-adv-x="567" d="M90 168q0 39 15.5 75t42 62.5t61.5 41.5t74 15t74.5 -15t62 -41.5t42 -62.5t15.5 -75q0 -41 -15.5 -76t-42 -60.5t-62 -41t-74.5 -15.5t-74 15.5t-61.5 41t-42 60.5t-15.5 76z" />
<glyph unicode="/" horiz-adv-x="983" d="M-41 -330l719 1880h309l-717 -1880h-311z" />
<glyph unicode="0" d="M55 670q0 174 38 303t106.5 215t164 128t209.5 42q123 0 216.5 -38t155 -120t93 -212t31.5 -314q0 -180 -41 -312.5t-111.5 -218.5t-165 -128t-198.5 -42q-115 0 -206 32t-156.5 112t-100.5 214t-35 339zM391 678q0 -137 10.5 -222t32 -132.5t53 -63.5t76.5 -16 q41 0 73 19.5t53.5 66.5t32.5 129t11 209q0 135 -11 218t-32.5 129t-53.5 61.5t-75 15.5q-39 0 -69.5 -17.5t-53 -63.5t-35 -127t-12.5 -206z" />
<glyph unicode="1" d="M117 1194l413 137h238v-1050h276v-281h-921v281h319v725l-276 -109z" />
<glyph unicode="2" d="M94 0v256l139 135q127 123 204 205t119 138.5t55.5 94t13.5 72.5q0 72 -48.5 118t-144.5 46q-80 0 -149.5 -24.5t-122.5 -59.5l-56 281q78 41 181.5 67.5t218.5 26.5q125 0 214 -34t146.5 -89t84 -127t26.5 -148q0 -68 -15.5 -129t-54.5 -126.5t-104.5 -139.5 t-163.5 -166l-102 -96v-4q78 4 167 5t183 1h135v-303h-926z" />
<glyph unicode="3" d="M119 6l26 266q119 -39 263 -39q139 0 199.5 49.5t60.5 120.5q0 70 -60.5 113t-201.5 43q-59 0 -110.5 -3t-107.5 -11v239h70q84 0 155.5 10.5t123 32t80 54t28.5 80.5q0 63 -48 100t-153 37q-86 0 -156.5 -17.5t-123.5 -46.5l-27 260q78 29 171 46.5t204 17.5 q236 0 348.5 -93.5t112.5 -242.5q0 -113 -57.5 -185.5t-159.5 -107.5l-2 -4q115 -18 183.5 -99t68.5 -192t-45.5 -196.5t-127 -144t-194.5 -89.5t-248 -31q-80 0 -152.5 10.5t-119.5 22.5z" />
<glyph unicode="4" d="M31 541l467 790h426v-774h161v-281h-161v-276h-308v276h-557zM342 553q27 2 65.5 3t80.5 1h78h57v461h-2z" />
<glyph unicode="5" d="M152 4v279q63 -18 127.5 -28.5t152.5 -10.5q115 0 177.5 47t62.5 129q0 86 -73 129t-202 43q-68 0 -127 -5t-106 -12v756h794v-293h-495v-202h57q119 0 212 -28t156.5 -79t96.5 -121.5t33 -156.5q0 -109 -44 -197t-123 -149.5t-190.5 -95.5t-246.5 -34q-76 0 -139.5 7.5 t-122.5 21.5z" />
<glyph unicode="6" d="M63 569q0 190 50.5 337t142.5 245t223 149.5t295 51.5q43 0 89 -2t87 -7v-270q-92 18 -186 19q-150 0 -237 -70t-128 -197q-4 -14 -9 -30.5t-9 -38.5h2q94 98 266 98q102 0 181 -30.5t132.5 -84t80 -125t26.5 -153.5q0 -115 -36 -206t-102.5 -153.5t-158.5 -95.5 t-203 -33q-115 0 -209 35t-159.5 107.5t-101.5 185.5t-36 268zM391 430q0 -88 47 -145.5t144 -57.5q82 0 127 53.5t45 135.5q0 88 -46 136t-137 48q-88 0 -134 -53t-46 -117z" />
<glyph unicode="7" d="M94 1024v307h934v-268q-66 -127 -126 -265.5t-113.5 -276.5t-98.5 -271t-80 -250h-356q39 131 89 272.5t105.5 278.5t110.5 261t105 218q-25 0 -70 -1t-100.5 -2t-115 -2t-110.5 -1h-174z" />
<glyph unicode="8" d="M66 336q0 113 62 189.5t155 136.5q-84 51 -136.5 121.5t-52.5 181.5q0 90 37 162.5t101.5 124t153.5 79t194 27.5q106 0 189 -25.5t141.5 -72t89 -107.5t30.5 -135q0 -106 -55 -180t-137 -129q45 -25 86 -55.5t71.5 -70.5t48 -89.5t17.5 -110.5q0 -102 -42 -178 t-112.5 -128t-163 -78t-194.5 -26q-229 0 -356 97.5t-127 265.5zM387 360q0 -59 46 -98t138 -39q76 0 121 37t45 96q0 68 -57 109t-141 78q-63 -39 -107.5 -81t-44.5 -102zM408 993q0 -57 45 -95t127 -75q59 35 98 75t39 93q0 51 -36 88t-122 37q-78 0 -114.5 -38t-36.5 -85 z" />
<glyph unicode="9" d="M55 872q0 113 37 203t103.5 153.5t158.5 96.5t203 33q115 0 208 -37t158.5 -110.5t101.5 -185t36 -263.5q0 -193 -49 -339.5t-141.5 -244.5t-223.5 -148t-295 -50q-45 0 -98 2t-104 12v272q55 -14 109 -19t108 -5q147 0 231 64.5t123 191.5q4 18 9 32.5t11 36.5h-2 q-47 -43 -112.5 -67.5t-151.5 -24.5q-102 0 -180 31t-131 85t-81 125.5t-28 155.5zM367 915q0 -90 46 -137t134 -47q86 0 132 50t46 122q0 88 -46 144.5t-142 56.5q-80 0 -125 -55.5t-45 -133.5z" />
<glyph unicode=":" horiz-adv-x="626" d="M139 168q0 39 15.5 75t42 62.5t61.5 41.5t76 15q39 0 73.5 -15t61.5 -41.5t42 -62.5t15 -75q0 -41 -15 -76t-42 -60.5t-61.5 -41t-73.5 -15.5q-41 0 -76 15.5t-61.5 41t-42 60.5t-15.5 76zM139 735q0 39 15.5 74t42 61.5t61.5 42t76 15.5q39 0 73.5 -15.5t61.5 -42 t42 -61.5t15 -74q0 -41 -15 -75.5t-42 -61.5t-61.5 -42t-73.5 -15q-41 0 -76 15t-61.5 42t-42 61.5t-15.5 75.5z" />
<glyph unicode=";" horiz-adv-x="626" d="M109 -266q55 57 84.5 104t39 86t-2 72t-40.5 65q-35 39 -40 89.5t13.5 95.5t62 75.5t106.5 30.5q84 0 139 -63.5t55 -167t-65.5 -234.5t-224.5 -266zM139 735q0 39 15.5 74t42 61.5t61.5 42t76 15.5q39 0 73.5 -15.5t61.5 -42t42 -61.5t15 -74q0 -41 -15 -75.5t-42 -61.5 t-61.5 -42t-73.5 -15q-41 0 -76 15t-61.5 42t-42 61.5t-15.5 75.5z" />
<glyph unicode="&#x3c;" d="M119 612l653 619l207 -207l-459 -410l461 -407l-205 -213z" />
<glyph unicode="=" d="M106 274v250h914v-250h-914zM106 692v250h914v-250h-914z" />
<glyph unicode="&#x3e;" d="M145 1020l205 211l658 -619l-654 -618l-207 207l459 409z" />
<glyph unicode="?" horiz-adv-x="931" d="M115 1194l39 283q186 -4 318 -41t216 -97.5t124 -136.5t40 -158q0 -86 -28.5 -146t-70.5 -106.5t-88.5 -84t-80 -78.5t-48 -92.5t8.5 -124.5h-305q-33 94 -26 161.5t38 119.5t75 91t85 74t70.5 72t29.5 82q0 86 -103.5 132t-293.5 50zM213 152q0 76 53 127t131 51 t131.5 -51t53.5 -127q0 -74 -53.5 -125.5t-131.5 -51.5t-131 51.5t-53 125.5z" />
<glyph unicode="@" horiz-adv-x="1976" d="M156 573q0 205 70.5 377t193.5 297t288.5 194.5t358.5 69.5q180 0 317.5 -50t229.5 -138t139 -208t47 -259q0 -147 -38 -258t-106.5 -184.5t-162.5 -110.5t-207 -37q-104 0 -156.5 50.5t-54.5 129.5h-8q-18 -33 -46 -65.5t-62.5 -58t-76.5 -41t-89 -15.5q-98 0 -155.5 75 t-57.5 232q0 113 28.5 212.5t89 173t152.5 115.5t219 42q72 0 139.5 -14.5t110.5 -32.5l-66 -387q-16 -98 -0.5 -136t68.5 -38q41 0 78 17.5t64.5 57.5t43 103.5t15.5 155.5q0 82 -24.5 157.5t-80 134t-145.5 93.5t-219 35t-241 -47.5t-194.5 -133.5t-131 -207.5 t-48.5 -271.5q0 -121 32 -215t98.5 -159.5t170 -100.5t248.5 -35q90 0 182.5 17.5t182.5 46.5l47 -240q-106 -39 -229 -58.5t-222 -19.5q-197 0 -345 52.5t-247.5 147.5t-149.5 231.5t-50 303.5zM813 618q0 -61 11.5 -87.5t39.5 -26.5q47 0 98.5 73.5t86.5 245.5l14 78 q-16 6 -33.5 8t-36.5 2q-43 0 -76.5 -28.5t-56 -71.5t-35 -94t-12.5 -99z" />
<glyph unicode="A" horiz-adv-x="1296" d="M-8 0l467 1382h362l486 -1382h-351l-86 256h-477l-84 -256h-317zM469 508h322l-107 315q-16 51 -29.5 98.5t-23.5 94.5h-4q-10 -47 -22.5 -94.5t-29.5 -98.5z" />
<glyph unicode="B" horiz-adv-x="1200" d="M123 0v1380q96 4 231 7.5t264 3.5q223 0 349.5 -87t126.5 -262q0 -98 -48.5 -178t-140.5 -121v-6q106 -29 167 -115t61 -190q0 -84 -32 -161.5t-100.5 -139t-176 -98.5t-261.5 -37q-63 0 -176 2t-264 2zM442 262q20 -4 55 -5t70 -1q109 0 166.5 46t57.5 126t-64.5 121 t-177.5 41h-50t-57 -2v-326zM442 827q20 -2 43 -2h52q117 0 168 45t51 123q0 66 -46 104t-145 38q-37 0 -65.5 -1t-57.5 -4v-303z" />
<glyph unicode="C" horiz-adv-x="1136" d="M68 641q0 168 45 306t134 237.5t219 154t302 54.5q72 0 145.5 -9.5t137.5 -29.5l-41 -291q-117 43 -248 43q-168 0 -256 -111.5t-88 -300.5q0 -205 86 -313.5t274 -108.5q53 0 120 13.5t116 38.5l45 -283q-74 -29 -164 -44t-180 -15q-190 0 -315.5 59t-199 153.5 t-103 212t-29.5 234.5z" />
<glyph unicode="D" horiz-adv-x="1351" d="M123 2v1376q82 4 206 8.5t265 4.5q156 0 284 -36t218 -116t140 -208t50 -312q0 -178 -54 -314.5t-153.5 -228.5t-239 -139t-307.5 -47q-111 0 -212 4t-197 8zM442 272q20 -4 51 -6t68 -2q82 0 152.5 25.5t122 79t80 134t28.5 191.5q0 98 -17.5 177t-60.5 134.5t-114.5 86 t-178.5 30.5h-72.5t-58.5 -4v-846z" />
<glyph unicode="E" horiz-adv-x="997" d="M123 0v1382h778v-268h-459v-274h435v-260h-435v-306h459v-274h-778z" />
<glyph unicode="F" horiz-adv-x="948" d="M123 0v1382h762v-272h-443v-295h418v-262h-418v-553h-319z" />
<glyph unicode="G" horiz-adv-x="1372" d="M66 657q0 166 54 303.5t155.5 235.5t247 152.5t325.5 54.5q113 0 216 -16.5t183 -40.5l-63 -291q-76 29 -163 46t-187 17q-199 0 -311.5 -115.5t-112.5 -320.5q0 -193 99 -304.5t294 -111.5q76 0 131 19v452h319v-669q-102 -41 -226 -66t-259 -25q-168 0 -299 47.5 t-220 135.5t-136 214t-47 283z" />
<glyph unicode="H" horiz-adv-x="1390" d="M123 0v1382h319v-530h506v530h320v-1382h-320v575h-506v-575h-319z" />
<glyph unicode="I" horiz-adv-x="565" d="M123 0v1382h319v-1382h-319z" />
<glyph unicode="J" horiz-adv-x="694" d="M0 -4v270q23 -8 51.5 -13t65.5 -5q66 0 102.5 34.5t36.5 131.5v968h317v-979q0 -84 -18 -160.5t-63.5 -135t-121 -93t-188.5 -34.5q-63 0 -103 4t-79 12z" />
<glyph unicode="K" horiz-adv-x="1239" d="M123 0v1382h319v-610l379 610h387l-456 -665l479 -717h-414l-375 649v-649h-319z" />
<glyph unicode="L" horiz-adv-x="880" d="M123 0v1382h319v-1099h418v-283h-737z" />
<glyph unicode="M" horiz-adv-x="1794" d="M41 0l221 1382h367l192 -606q20 -66 39 -140.5t35 -160.5h4q16 84 34.5 154.5t45.5 148.5l195 604h360l221 -1382h-336l-88 569q-14 84 -23.5 163t-17.5 159h-4q-16 -78 -34.5 -157t-45.5 -169l-170 -565h-307l-164 522q-29 92 -51 183.5t-39 185.5h-2 q-10 -98 -20.5 -181t-20.5 -169l-70 -541h-321z" />
<glyph unicode="N" horiz-adv-x="1419" d="M123 0v1382h409l304 -546q47 -86 89 -173.5t79 -166.5q-4 45 -7.5 99t-4.5 111.5l-2 115t-1 106.5v454h307v-1382h-407l-326 596q-43 80 -78.5 157.5t-64.5 145.5q4 -78 7 -176t3 -197v-526h-307z" />
<glyph unicode="O" horiz-adv-x="1437" d="M57 674q0 168 54.5 304t147.5 232.5t218 147.5t266 51q137 0 254 -41t202 -126t133 -216t48 -313q0 -170 -53 -307.5t-146.5 -233.5t-218 -147.5t-268.5 -51.5q-160 0 -279.5 48.5t-199.5 139.5t-119 220t-39 293zM395 700q0 -201 77 -317.5t241 -116.5q57 0 115.5 22.5 t105.5 73t77.5 132t30.5 198.5q0 211 -81.5 318.5t-241.5 107.5q-61 0 -119.5 -24.5t-103.5 -75.5t-73 -130t-28 -188z" />
<glyph unicode="P" horiz-adv-x="1097" d="M123 0v1382q90 4 187.5 7.5t205.5 3.5q266 0 405.5 -115t139.5 -330q0 -100 -36 -189t-104.5 -156.5t-171 -106.5t-233.5 -39h-31.5t-42.5 2v-459h-319zM442 725q16 -2 29.5 -3t26.5 -1q100 2 166.5 56.5t66.5 156.5q0 88 -51 143.5t-170 55.5h-33.5t-34.5 -3v-405z" />
<glyph unicode="Q" horiz-adv-x="1437" d="M57 674q0 168 54.5 304t147.5 232.5t218 147.5t266 51q137 0 254 -41t202 -126t133 -216t48 -313q0 -170 -53 -307.5t-146.5 -233.5t-218 -147.5t-268.5 -51.5q-160 0 -279.5 48.5t-199.5 139.5t-119 220t-39 293zM395 700q0 -201 77 -317.5t241 -116.5q57 0 115.5 22.5 t105.5 73t77.5 132t30.5 198.5q0 211 -81.5 318.5t-241.5 107.5q-61 0 -119.5 -24.5t-103.5 -75.5t-73 -130t-28 -188zM594 -115q75 10 138 10q16 0 31 -1q75 -3 138.5 -13t120.5 -22.5t118.5 -21.5t131.5 -11h18q64 0 144 12v-278q-98 -16 -176 -16q-4 -1 -8 -1 q-73 0 -136 9q-65 10 -124.5 23t-120 23.5t-127.5 14.5q-18 1 -39 1q-50 0 -109 -7v278z" />
<glyph unicode="R" horiz-adv-x="1177" d="M123 0v1382q88 6 197.5 8.5t234.5 2.5q123 0 219 -22.5t164 -72t103.5 -127t35.5 -188.5q0 -141 -83 -244.5t-214 -138.5q29 -41 55.5 -79t51.5 -77l284 -444h-389l-321 541h-19v-541h-319zM442 772q12 -2 35 -3t45 -1q102 0 161.5 50t59.5 138q0 82 -50 128t-163 46 q-25 0 -49 -1t-39 -3v-354z" />
<glyph unicode="S" horiz-adv-x="1028" d="M68 975q0 98 36.5 177t106.5 136.5t171 88t232 30.5q53 0 123 -6t129 -21l-28 -278q-117 41 -238 41q-98 0 -144 -36t-46 -95q0 -53 42 -86t104 -60.5t135 -56.5t135.5 -75t104.5 -116.5t42 -179.5q0 -98 -40 -183t-112.5 -147.5t-173 -97.5t-223.5 -35q-98 0 -178 9.5 t-152 27.5l31 303q68 -29 144.5 -45t162.5 -16q78 0 133.5 34t55.5 109q0 59 -41 92t-102.5 58.5t-133.5 52.5t-133 72t-102 115.5t-41 187.5z" />
<glyph unicode="T" horiz-adv-x="1038" d="M29 1110v272h981v-272h-332v-1110h-318v1110h-331z" />
<glyph unicode="U" horiz-adv-x="1378" d="M123 487v895h319v-876q0 -61 11.5 -109.5t39 -83t75.5 -53t122 -18.5q135 0 192.5 63.5t57.5 218.5v858h315v-839q0 -293 -155.5 -431.5t-429.5 -138.5q-166 0 -271.5 41t-167 112t-85 164t-23.5 197z" />
<glyph unicode="V" horiz-adv-x="1300" d="M-4 1382h344l244 -755q18 -57 37.5 -127t33.5 -131h4q16 66 36 137.5t42 138.5l242 737h326l-467 -1382h-373z" />
<glyph unicode="W" horiz-adv-x="1947" d="M37 1382h338l162 -673q16 -68 27 -141.5t18 -147.5h2q10 72 22 141.5t31 138.5l180 682h330l180 -669q16 -59 30.5 -133t24.5 -152h2q10 80 22.5 152.5t29.5 138.5l155 663h320l-346 -1382h-387l-164 651q-16 70 -28.5 150t-22.5 166h-2q-8 -80 -20.5 -156t-31.5 -149 l-166 -662h-364z" />
<glyph unicode="X" horiz-adv-x="1327" d="M12 0l432 705l-407 677h369l251 -448l248 448h363l-400 -680l447 -702h-402l-262 467l-262 -467h-377z" />
<glyph unicode="Y" horiz-adv-x="1183" d="M-4 1382h348l158 -352q55 -123 88 -221h4q20 59 48 121.5t58 128.5l150 323h336l-438 -899v-483h-320v481z" />
<glyph unicode="Z" horiz-adv-x="1097" d="M90 0v250l445 743q31 51 73 107q-14 0 -30.5 -1t-41 -2t-60.5 -1h-85h-287v286h895v-260l-469 -753q-12 -20 -24 -38t-29 -40q20 4 83 4h185h263v-295h-918z" />
<glyph unicode="[" horiz-adv-x="677" d="M127 -426v2025h481v-249h-188v-1524h188v-252h-481z" />
<glyph unicode="\" horiz-adv-x="1032" d="M8 1550h311l717 -1880h-311z" />
<glyph unicode="]" horiz-adv-x="677" d="M72 -174h186v1524h-186v249h481v-2025h-481v252z" />
<glyph unicode="^" d="M100 788l334 594h236l348 -589l-221 -111l-250 481l-240 -481z" />
<glyph unicode="_" d="M0 -248h1126v-252h-1126v252z" />
<glyph unicode="`" horiz-adv-x="772" d="M156 1348l135 208l385 -253l-109 -170z" />
<glyph unicode="a" horiz-adv-x="1077" d="M66 279q0 96 43 164.5t118.5 111.5t181 63.5t230.5 20.5v41q0 63 -40 94t-142 31q-68 0 -143.5 -19.5t-137.5 -48.5l-53 244q80 29 183.5 46t203.5 17q129 0 214 -23.5t136 -69.5t71.5 -111.5t20.5 -149.5v-448q0 -55 2 -119t7 -123h-293q0 37 1 76t7 78h-2 q-37 -80 -121 -128.5t-191 -48.5q-74 0 -129 24t-92 64.5t-56 95t-19 118.5zM360 311q0 -41 27 -68.5t76 -27.5q39 0 71.5 16.5t55 43t36 62.5t13.5 73v32q-82 0 -136 -10t-86 -27.5t-44.5 -41t-12.5 -52.5z" />
<glyph unicode="b" horiz-adv-x="1144" d="M121 29v1466h311v-401q0 -47 -4 -104.5t-10 -98.5l2 -2q37 70 111.5 110.5t177.5 40.5q184 0 278 -127t94 -350q0 -125 -36.5 -232.5t-107.5 -185t-176.5 -123t-242.5 -45.5q-115 0 -210 13.5t-187 38.5zM432 240q43 -12 109 -13q45 0 84 15.5t66.5 51.5t44 94t16.5 144 q0 129 -34 188.5t-106 59.5q-80 0 -130 -81t-50 -203v-256z" />
<glyph unicode="c" horiz-adv-x="856" d="M61 477q0 115 32 217.5t96.5 179t165 121.5t239.5 45q53 0 106.5 -8t100.5 -24l-47 -271q-80 35 -162 35q-104 0 -154.5 -72.5t-50.5 -197.5q0 -117 50 -184.5t155 -67.5q45 0 89 8t83 27l37 -262q-57 -23 -129 -34.5t-144 -11.5q-233 0 -350 126t-117 374z" />
<glyph unicode="d" horiz-adv-x="1142" d="M61 453q0 125 37 232.5t106.5 185t171 122.5t232.5 45q53 0 103 -6v463h311v-1495h-287q0 33 2 69.5t8 75.5h-4q-41 -74 -117.5 -122t-191.5 -48q-184 0 -277.5 129t-93.5 349zM391 485q0 -249 140 -249h1q39 0 72 21.5t56.5 60t37 93t13.5 117.5v250q-53 12 -107 13 q-45 0 -84 -15.5t-67.5 -51.5t-45 -94.5t-16.5 -144.5z" />
<glyph unicode="e" horiz-adv-x="1062" d="M61 498q0 117 32 217t94.5 173t153.5 113.5t210 40.5q115 0 199 -36.5t138 -100t79.5 -150t25.5 -186.5q0 -33 -3 -66.5t-7 -72.5h-606q2 -100 63.5 -155.5t188.5 -55.5q74 0 149.5 15.5t149.5 48.5l30 -236q-88 -35 -187 -52.5t-193 -17.5q-250 0 -383.5 125t-133.5 396 zM377 637h309v16q0 76 -36 117q-40 45 -107 45q-68 0 -113 -49t-53 -129z" />
<glyph unicode="f" horiz-adv-x="731" d="M18 778v240h156v88q0 205 97.5 306t320.5 101q41 0 82 -3t82 -13l-21 -254q-55 18 -112 19q-72 0 -105 -36t-33 -118v-90h209v-240h-209v-778h-311v778h-156z" />
<glyph unicode="g" horiz-adv-x="1122" d="M61 -205q0 37 12.5 73t33 67.5t47 56t55.5 41.5q-45 23 -71.5 63.5t-26.5 93.5q0 61 35.5 113.5t89.5 75.5q-70 37 -112 106.5t-42 167.5q0 78 28.5 148.5t87 124t144.5 85t203 31.5q53 0 94 -7t84 -17h346v-246h-117q29 -33 29 -90q0 -166 -109.5 -265.5t-330.5 -99.5 q-29 0 -62 7q-18 -10 -27.5 -24.5t-9.5 -27.5q0 -33 30 -41t116 -12l137 -6q166 -6 258 -77.5t92 -225.5q0 -84 -40 -159t-114.5 -133t-180 -92t-236.5 -34q-211 0 -327 75t-116 228zM367 -145q0 -57 48 -92t134 -35q111 0 165 41t54 100q0 43 -28.5 72.5t-100.5 33.5 l-162 5q-10 2 -20.5 1t-18.5 1q-35 -29 -53 -61t-18 -66zM381 674q0 -68 38 -107t116 -39q72 0 111.5 38t39.5 104t-38 106.5t-116 40.5q-72 0 -111.5 -40t-39.5 -103z" />
<glyph unicode="h" horiz-adv-x="1163" d="M121 0v1495h311v-408q0 -45 -3 -103t-13 -105h2q45 72 126 116.5t195 44.5q86 0 143.5 -25.5t92.5 -69.5t50 -103.5t15 -124.5v-717h-311v647q0 61 -20.5 96t-73.5 35q-41 0 -78 -23.5t-64.5 -63.5t-44 -92t-16.5 -107v-492h-311z" />
<glyph unicode="i" horiz-adv-x="555" d="M86 1321q0 37 15.5 70.5t41 59.5t60.5 40t73 14q39 0 75 -14t61.5 -39t41 -58.5t15.5 -72.5t-15.5 -73t-41 -58.5t-61.5 -38.5t-75 -14t-73.5 14t-60 38.5t-41 58.5t-15.5 73zM121 0v1018h311v-1018h-311z" />
<glyph unicode="j" horiz-adv-x="561" d="M-133 -479l18 264q29 -10 60.5 -16.5t56.5 -6.5q70 0 97.5 35t27.5 117v1104h311v-1069q0 -104 -21.5 -187.5t-71.5 -141.5t-131 -89t-200 -31q-35 0 -74.5 5.5t-72.5 15.5zM90 1321q0 37 15.5 70.5t41 59.5t60.5 40t76 14q39 0 73.5 -14t60 -39t41 -58.5t15.5 -72.5 t-15.5 -73t-41 -58.5t-60 -38.5t-73.5 -14q-41 0 -76 14t-60.5 38.5t-41 58.5t-15.5 73z" />
<glyph unicode="k" horiz-adv-x="1110" d="M121 0v1495h311v-887l258 410h383l-336 -467l361 -551h-389l-277 489v-489h-311z" />
<glyph unicode="l" horiz-adv-x="555" d="M121 0v1495h311v-1495h-311z" />
<glyph unicode="m" horiz-adv-x="1757" d="M121 0v1018h293q0 -29 -3 -75t-10 -87h2q47 86 132.5 135t193.5 49q117 0 185.5 -52t93.5 -132q41 76 122.5 130t198.5 54q150 0 228.5 -85t78.5 -259v-696h-313v637q0 66 -19.5 103.5t-72.5 37.5q-35 0 -71 -21.5t-64.5 -60.5t-46 -92t-17.5 -115v-489h-307v639 q0 61 -18.5 100t-73.5 39q-37 0 -74 -22.5t-64.5 -61.5t-45 -91t-17.5 -114v-489h-311z" />
<glyph unicode="n" horiz-adv-x="1163" d="M121 0v1018h291q0 -29 -2 -76t-11 -84l2 -2q47 80 131 132t207 52q86 0 143.5 -25.5t92.5 -69.5t50 -103.5t15 -124.5v-717h-311v647q0 61 -20.5 96t-73.5 35q-41 0 -78 -23.5t-64.5 -63.5t-44 -91t-16.5 -106v-494h-311z" />
<glyph unicode="o" horiz-adv-x="1142" d="M57 485q0 125 40 227.5t113 175.5t171 112.5t215 39.5q233 0 360 -127t127 -383q0 -123 -41 -225t-112.5 -175t-169.5 -113t-213 -40q-111 0 -201 29t-154.5 90.5t-99.5 157.5t-35 231zM381 520q0 -141 45 -206.5t143 -65.5q86 0 138.5 67.5t52.5 196.5q0 131 -43 196.5 t-142 65.5q-37 0 -71.5 -14.5t-62 -45t-44 -78.5t-16.5 -116z" />
<glyph unicode="p" horiz-adv-x="1144" d="M121 -485v1503h287q0 -33 -2.5 -70t-6.5 -76h4q43 80 119 124t189 44q182 0 276 -126t94 -349q0 -131 -33.5 -237.5t-101 -183t-170 -118.5t-239.5 -42q-29 0 -54.5 2t-50.5 6v-477h-311zM432 240q49 -12 109 -13q45 0 84 15.5t66.5 51.5t44 94t16.5 144q0 250 -140 250 q-41 0 -73.5 -21.5t-56 -60t-37 -93t-13.5 -118.5v-249z" />
<glyph unicode="q" horiz-adv-x="1144" d="M63 451q0 125 36 232.5t108 187t177 124.5t247 45q119 0 213 -9t180 -23v-1493h-313v415q0 47 3 101.5t11 105.5l-4 2q-39 -78 -111.5 -121t-167.5 -43q-186 0 -282.5 120t-96.5 356zM391 485q0 -249 138 -249h1q80 0 130.5 82.5t50.5 216.5v245q-23 4 -48.5 7.5 t-58.5 3.5q-45 0 -84 -15.5t-67.5 -51.5t-45 -94.5t-16.5 -144.5z" />
<glyph unicode="r" horiz-adv-x="729" d="M121 0v1018h291q0 -33 -3 -83t-12 -97h4q41 92 115 152q66 53 167 53q12 0 24 -1l-15 -309q-36 8 -67 8q-79 0 -127 -54q-66 -75 -66 -267v-420h-311z" />
<glyph unicode="s" horiz-adv-x="841" d="M70 702q0 70 26.5 132.5t81.5 108.5t140 72.5t202 26.5q41 0 88 -5t90 -13l-10 -244q-39 14 -85 20.5t-91 6.5q-59 0 -88 -21.5t-29 -56.5q0 -33 29 -53.5t71 -39t91 -38.5t91 -53t70.5 -85t28.5 -134q0 -80 -32.5 -144.5t-93 -109.5t-145.5 -70t-190 -25q-123 0 -225 29 l16 254q94 -41 213 -41q59 0 92 21.5t33 58.5t-27.5 58.5t-69.5 38t-90 35t-90 51t-69.5 84.5t-27.5 136z" />
<glyph unicode="t" horiz-adv-x="772" d="M16 778v240h154v301l313 84v-385h219v-240h-219v-401q0 -78 22.5 -108.5t82.5 -30.5q29 0 54.5 4t51.5 10l19 -244q-53 -14 -114.5 -22.5t-117.5 -8.5q-88 0 -147.5 16.5t-96 54.5t-52 100.5t-15.5 156.5v473h-154z" />
<glyph unicode="u" horiz-adv-x="1159" d="M119 301v717h313v-647q0 -61 20.5 -96t73.5 -35q41 0 78 23.5t64.5 63.5t43 91t15.5 106v494h313v-1018h-290q0 29 2 76t10 84l-4 2q-47 -80 -130 -132.5t-206 -52.5q-86 0 -143.5 26t-93 70t-51 103.5t-15.5 124.5z" />
<glyph unicode="v" horiz-adv-x="1062" d="M-2 1018h342l125 -361q20 -57 38.5 -122.5t35.5 -124.5h4q12 57 28.5 118.5t36.5 118.5l125 371h332l-375 -1018h-317z" />
<glyph unicode="w" horiz-adv-x="1634" d="M10 1018h340l78 -283q23 -78 43.5 -158.5t40.5 -173.5h4q16 94 34.5 170t41.5 148l88 297h289l90 -281q27 -86 48 -165.5t38 -168.5h4q16 88 32.5 165t39.5 153l84 297h319l-317 -1018h-332l-113 354q-16 55 -29.5 113.5t-29.5 130.5h-2q-14 -72 -30.5 -132t-35.5 -124 l-102 -342h-314z" />
<glyph unicode="x" horiz-adv-x="1093" d="M10 0l336 516l-315 502h370l160 -305l162 305h344l-297 -502l315 -516h-389l-157 311l-158 -311h-371z" />
<glyph unicode="y" horiz-adv-x="1056" d="M-27 -487l35 266q31 -10 66 -15.5t69 -5.5q27 0 56.5 7.5t57.5 26t52.5 51t40.5 81.5l25 76l-369 1018h344l103 -297q23 -66 44 -144.5t38 -152.5h2q18 78 45.5 171t50.5 157l92 266h334l-395 -1057q-53 -139 -109.5 -228t-121 -141.5t-139.5 -73t-163 -20.5q-35 0 -80 4 t-78 11z" />
<glyph unicode="z" horiz-adv-x="925" d="M90 0v223l356 518q-23 -2 -68.5 -3t-115.5 -1h-160v281h725v-223l-346 -510q12 0 36 1t51.5 1h57h54.5h154v-287h-744z" />
<glyph unicode="{" horiz-adv-x="770" d="M53 520v234q45 2 82 11t62.5 33.5t39 66.5t13.5 110v135q0 256 94 372.5t313 116.5h48v-249q-47 0 -79 -9.5t-50.5 -35t-26.5 -71.5t-8 -122v-135q0 -90 -14.5 -151.5t-39 -101.5t-59.5 -59.5t-76 -25.5v-4q41 -6 76 -27.5t59.5 -62.5t39 -104.5t14.5 -153.5v-219 q0 -76 8 -123t26.5 -74t50 -36t79.5 -9v-252h-48q-109 0 -185.5 27.5t-125.5 87t-72.5 152.5t-23.5 227v221q0 133 -52.5 180t-144.5 51z" />
<glyph unicode="|" horiz-adv-x="593" d="M168 -485v2048h248v-2048h-248z" />
<glyph unicode="}" horiz-adv-x="765" d="M68 -174q49 0 80.5 9t50 36t25.5 74t7 123v219q0 90 14.5 153.5t39 104.5t59.5 62.5t76 27.5v4q-41 6 -76 25.5t-59.5 58.5t-39 100.5t-14.5 151.5v137q0 76 -7 122t-25.5 71.5t-50 35t-80.5 9.5v249h49q217 0 311 -116.5t94 -372.5v-133q0 -68 13.5 -111t39 -67.5 t62.5 -33.5t84 -11v-234q-92 -4 -145.5 -51t-53.5 -180v-221q0 -264 -95 -379t-310 -115h-49v252z" />
<glyph unicode="~" d="M70 866v49q0 158 89 252.5t242 94.5q59 0 101.5 -15.5t72 -38t51 -50.5t40 -50.5t38 -37.5t44.5 -15q41 0 59 36.5t18 116.5h232v-47q0 -158 -89 -252t-243 -94q-88 0 -139 33t-84 70.5t-58.5 70.5t-62.5 33q-41 0 -59.5 -37t-18.5 -119h-233z" />
<glyph unicode="&#xa1;" horiz-adv-x="661" d="M131 -438l45 1044h270l52 -1044h-367zM131 866q0 74 53.5 125t130.5 51q78 0 131.5 -51t53.5 -125q0 -76 -53.5 -127t-131.5 -51t-131 51.5t-53 126.5z" />
<glyph unicode="&#xa2;" d="M143 666q0 188 99.5 317t292.5 174v174h233v-164q45 -4 98.5 -14t96.5 -25l-64 -249q-84 39 -190 39q-109 0 -174.5 -61.5t-65.5 -178.5q0 -106 65.5 -165.5t174.5 -59.5q53 0 102 11t92 36l74 -248q-43 -23 -101.5 -37t-107.5 -20v-195h-233v195q-100 12 -174 51 t-122.5 101.5t-72 143t-23.5 175.5z" />
<glyph unicode="&#xa3;" d="M90 543v241h150q-4 39 -8.5 74t-4.5 68q0 119 35 201.5t97.5 134t151.5 74t200 22.5q53 0 123.5 -8.5t134.5 -24.5l-64 -262q-41 14 -95 25.5t-114 11.5q-154 0 -153 -152q0 -39 5 -81t9 -83h297v-241h-268q6 -31 6 -70q0 -70 -23.5 -118t-70.5 -93q35 2 70.5 3t70.5 1 h377v-266h-883v211q143 111 143 256q0 39 -6 76h-180z" />
<glyph unicode="&#xa4;" d="M66 254l133 168q-29 47 -45.5 106.5t-16.5 137.5q0 145 72 245l-143 185l241 170l144 -193q61 18 133 19q29 0 56.5 -3.5t53.5 -11.5l137 191l240 -174l-133 -172q25 -43 38 -100.5t13 -131.5q0 -72 -18.5 -132t-50.5 -109l151 -195l-242 -174l-151 205q-63 -23 -135 -23 q-47 0 -94 10l-140 -190zM406 676q0 -84 37.5 -136.5t117.5 -52.5q31 0 59.5 10.5t51 34t36 60.5t13.5 92q0 182 -158 182q-59 0 -108 -46t-49 -144z" />
<glyph unicode="&#xa5;" d="M23 1331h344l127 -295q23 -51 40 -103t29 -87h4q12 39 34 92t42 100l125 293h336l-309 -645h229v-194h-303v-105h303v-194h-303v-193h-315v193h-306v194h306v105h-306v194h230z" />
<glyph unicode="&#xa6;" horiz-adv-x="593" d="M168 289h248v-774h-248v774zM168 809v754h248v-754h-248z" />
<glyph unicode="&#xa7;" horiz-adv-x="1097" d="M104 649q0 92 42 171t114 128q-37 45 -56.5 95.5t-19.5 117.5q0 70 26 133.5t81 112.5t145 77.5t219 28.5q43 0 90.5 -3t85.5 -11l-14 -260q-68 20 -147 21q-78 0 -114 -23t-36 -70q0 -39 34 -75.5t83 -76.5t108.5 -87t108.5 -105.5t83 -132.5t34 -168q0 -92 -44 -172 t-112 -129q33 -41 54.5 -94t21.5 -121q0 -63 -26.5 -126.5t-88 -114t-159 -81t-238.5 -30.5q-37 0 -86 5t-90 15l20 260q39 -12 79 -17t79 -5q92 0 132 30.5t40 71.5t-33 78t-83 76t-108.5 83t-108.5 100.5t-83 129t-33 168.5zM385 688q0 -37 13.5 -69.5t44 -68.5t78.5 -78 t120 -99q25 20 38 48.5t13 57.5q0 45 -19.5 82t-53 72t-80.5 73.5t-103 90.5q-25 -20 -38 -49t-13 -60z" />
<glyph unicode="&#xa8;" horiz-adv-x="1118" d="M164 1321q0 66 48 114t114 48q68 0 114.5 -48t46.5 -114q0 -68 -47 -115t-114 -47q-66 0 -114 47t-48 115zM592 1321q0 66 48 114t114 48q68 0 114.5 -48t46.5 -114q0 -68 -47 -115t-114 -47q-66 0 -114 47t-48 115z" />
<glyph unicode="&#xa9;" horiz-adv-x="1566" d="M74 682q0 147 55 276t151.5 225.5t225.5 152t276 55.5t276.5 -55.5t225.5 -152t151.5 -225.5t55.5 -276t-55.5 -276.5t-151.5 -225.5t-225 -151.5t-277 -55.5q-147 0 -277 55.5t-225.5 151.5t-150.5 225.5t-55 276.5zM305 682q0 -98 38 -185t102.5 -152.5t151.5 -103.5 t185 -38t185.5 38t152 102.5t102.5 152.5t38 186t-38 185t-102.5 151.5t-151.5 102.5t-186 38q-98 0 -185 -38t-151.5 -102.5t-102.5 -151.5t-38 -185zM444 676q0 76 21.5 143.5t67 118.5t113 81t159.5 30q53 0 96 -9.5t78 -25.5l-37 -201q-18 16 -50 24.5t-67 8.5 q-66 0 -96.5 -43t-30.5 -123q0 -76 31 -112t86 -36q35 0 67.5 6.5t63.5 22.5l43 -196q-90 -45 -213 -46q-150 0 -241 95.5t-91 261.5z" />
<glyph unicode="&#xaa;" horiz-adv-x="845" d="M70 831q0 76 33.5 128.5t90 85t131 48t156.5 15.5v27q0 29 -18.5 53t-91.5 24q-63 0 -119.5 -15t-110.5 -40l-24 201q59 23 133 35t162 12q90 0 150.5 -20.5t96 -54.5t51 -78t15.5 -91q0 -100 -1 -188t-1 -160q0 -39 1 -83t3 -89h-229q0 20 2 46t6 50h-2 q-25 -53 -83.5 -84.5t-123.5 -31.5q-119 0 -173 60t-54 150zM92 311v242h670v-242h-670zM299 866q0 -25 17.5 -41t48.5 -16q29 0 50 11t36.5 29.5t22.5 41t7 43.5v20q-92 0 -137 -19.5t-45 -68.5z" />
<glyph unicode="&#xab;" d="M70 598l217 420l245 -105l-165 -315l170 -311l-254 -107zM549 598l242 408l235 -107l-180 -301l184 -295l-246 -110z" />
<glyph unicode="&#xac;" d="M76 479v262h936v-557h-279v295h-657z" />
<glyph unicode="&#xad;" horiz-adv-x="690" d="M86 430v250h516v-250h-516z" />
<glyph unicode="&#xae;" horiz-adv-x="1157" d="M80 1090q0 102 39 191t106.5 154.5t158.5 103.5t194 38q104 0 194 -38t157.5 -103.5t106.5 -154.5t39 -191t-39 -192.5t-106.5 -156t-158.5 -103.5t-193 -38q-104 0 -194.5 38t-158 103.5t-106.5 154.5t-39 194zM262 1090q0 -66 24.5 -123.5t67.5 -100.5t100.5 -68.5 t123.5 -25.5t123 24.5t100 67.5t67.5 100t24.5 123t-24.5 123.5t-67.5 100.5t-100.5 68.5t-122.5 25.5q-66 0 -123.5 -24.5t-100.5 -67.5t-67.5 -100.5t-24.5 -122.5zM401 866v449h207q86 0 125 -35t39 -94q0 -53 -21.5 -82t-56.5 -45q14 -14 27 -49l57 -144h-164l-57 160 h-18v-160h-138zM539 1120h20q29 0 43 13.5t14 33.5q0 43 -51 43h-26v-90z" />
<glyph unicode="&#xaf;" horiz-adv-x="808" d="M117 1204v226h575v-226h-575z" />
<glyph unicode="&#xb0;" horiz-adv-x="811" d="M72 1210q0 72 28.5 128.5t75.5 95.5t106.5 59t120.5 20q86 0 147.5 -23.5t99.5 -64.5t56.5 -95.5t18.5 -115.5q0 -76 -28.5 -133t-76 -96t-108.5 -58.5t-125 -19.5q-147 0 -231 81t-84 222zM299 1212q0 -53 26.5 -81.5t73.5 -28.5t73 33t26 82q0 39 -24.5 72.5 t-72.5 33.5q-45 0 -73.5 -30.5t-28.5 -80.5z" />
<glyph unicode="&#xb1;" d="M76 723v258h338v356h299v-356h338v-258h-338v-356h-299v356h-338zM86 0v260h954v-260h-954z" />
<glyph unicode="&#xb2;" horiz-adv-x="667" d="M82 721v170l96 78q66 53 91.5 84.5t25.5 56.5q0 53 -62 53q-29 0 -57.5 -8t-54.5 -22l-35 180q47 16 105.5 28.5t115.5 12.5q74 0 124 -16.5t81 -43t44 -62.5t13 -75q0 -51 -31.5 -99t-107.5 -112l-47 -39h199v-186h-500z" />
<glyph unicode="&#xb3;" horiz-adv-x="645" d="M78 717l20 149q20 -6 48 -11t57 -5q96 0 96 57q0 31 -36 48.5t-146 0.5v136h18q92 0 122 18t30 47q0 23 -14.5 34t-53.5 11q-27 0 -57.5 -6t-52.5 -20l-27 145q35 12 92 22.5t117 10.5q72 0 120 -14.5t77.5 -38t43 -53t13.5 -62.5q0 -51 -21.5 -89t-70.5 -61 q53 -6 84.5 -46t31.5 -85q0 -98 -80.5 -152.5t-246.5 -54.5q-20 0 -45 2t-47.5 5.5t-42 6.5t-29.5 5z" />
<glyph unicode="&#xb4;" horiz-adv-x="811" d="M170 1303l387 253l135 -208l-411 -215z" />
<glyph unicode="&#xb5;" horiz-adv-x="1306" d="M139 -485v1503h312v-643q0 -66 22.5 -99.5t75.5 -33.5q43 0 80 20.5t62.5 57t41 87t15.5 111.5v500h311v-664q0 -92 11 -117.5t40 -25.5q23 0 42 15.5t36 37.5l104 -143q-45 -61 -113.5 -102.5t-179.5 -41.5q-59 0 -98 15.5t-61.5 41t-33.5 56.5t-13 62h-2 q-35 -74 -99.5 -120t-161.5 -46q-68 0 -108 28l45 -499h-328z" />
<glyph unicode="&#xb6;" horiz-adv-x="1243" d="M96 915q0 109 38 196t105.5 147.5t161 92t203.5 31.5v-933q-135 0 -231.5 37.5t-157.5 102t-90 148.5t-29 178zM629 55h137v1327h387v-252h-127v-1327h-397v252z" />
<glyph unicode="&#xb7;" horiz-adv-x="598" d="M104 610q0 39 15.5 75t42 62.5t61.5 42t76 15.5q39 0 75 -15.5t62.5 -42t42 -62.5t15.5 -75q0 -41 -15.5 -75.5t-42 -61.5t-62.5 -42t-75 -15q-41 0 -76 15t-61.5 42t-42 61.5t-15.5 75.5z" />
<glyph unicode="&#xb8;" horiz-adv-x="819" d="M252 -479q72 84 80 157.5t-66 167.5l254 74q80 -115 63.5 -215t-102.5 -184h-229z" />
<glyph unicode="&#xb9;" horiz-adv-x="661" d="M76 1264l186 67h234v-610h-250v420l-129 -51z" />
<glyph unicode="&#xba;" horiz-adv-x="880" d="M66 1008q0 94 30.5 168.5t83.5 126t124 78t151 26.5q164 0 260 -90t96 -295q0 -92 -29.5 -166t-83 -126t-125 -79.5t-155.5 -27.5q-72 0 -136.5 20.5t-112.5 66.5t-75.5 118.5t-27.5 179.5zM94 311v242h688v-242h-688zM311 1016q0 -76 28 -128t95 -52q51 0 91 39t40 143 q0 82 -27.5 129t-99.5 47q-47 0 -87 -40t-40 -138z" />
<glyph unicode="&#xbb;" d="M96 897l248 109l236 -404l-242 -409l-238 108l181 301zM592 911l254 107l213 -416l-219 -422l-246 105l166 317z" />
<glyph unicode="&#xbc;" horiz-adv-x="1507" d="M76 1264l186 67h234v-610h-250v420l-129 -51zM111 92l1030 1284l194 -141l-1032 -1284zM815 246l197 364h321v-352h84v-168h-84v-90h-217v90h-285zM997 256h121v217z" />
<glyph unicode="&#xbd;" horiz-adv-x="1511" d="M74 1264l186 67h234v-610h-250v420l-129 -51zM109 92l1032 1284l192 -141l-1030 -1284zM909 0v170l99 78q66 53 90 85t24 56q0 51 -61 51q-57 0 -111 -28l-35 180q47 16 104.5 28.5t117.5 12.5q72 0 122 -16.5t80.5 -43t44 -62.5t13.5 -75q0 -51 -31 -99t-106 -112 l-50 -39h201v-186h-502z" />
<glyph unicode="&#xbe;" horiz-adv-x="1521" d="M90 717l23 147q18 -6 45.5 -10t56.5 -4q53 0 74.5 15.5t21.5 41.5q0 31 -35.5 48.5t-146.5 0.5v136h18q92 0 122 18t30 47q0 23 -14.5 34t-51.5 11q-29 0 -59.5 -6t-52.5 -20l-25 145q35 12 91.5 22.5t115.5 10.5q72 0 121 -14.5t78.5 -38t42 -53t12.5 -62.5 q0 -51 -21.5 -89t-70.5 -61q55 -6 86 -46t31 -85q0 -98 -81 -152.5t-247 -54.5q-41 0 -91 6.5t-73 12.5zM125 92l1032 1284l193 -141l-1031 -1284zM829 246l197 364h322v-352h84v-168h-84v-90h-218v90h-284zM1014 256h119v217z" />
<glyph unicode="&#xbf;" horiz-adv-x="931" d="M78 -27q0 86 28.5 146.5t70.5 106.5t88 84t81 79t49.5 92t-8.5 125h305q33 -94 26 -161.5t-38 -120t-75 -91t-85 -73.5t-70.5 -72t-29.5 -82q0 -86 103.5 -132t291.5 -50l-37 -283q-186 2 -318 40t-217 97.5t-125 136t-40 158.5zM350 866q0 74 53.5 125t131.5 51t131 -51 t53 -125q0 -76 -53.5 -127t-130.5 -51q-78 0 -131.5 51.5t-53.5 126.5z" />
<glyph unicode="&#xc0;" horiz-adv-x="1296" d="M-8 0l467 1382h362l486 -1382h-351l-86 256h-477l-84 -256h-317zM254 1559l65 217l459 -154l-49 -168zM469 508h322l-107 315q-16 51 -29.5 98.5t-23.5 94.5h-4q-10 -47 -22.5 -94.5t-29.5 -98.5z" />
<glyph unicode="&#xc1;" horiz-adv-x="1296" d="M-8 0l467 1382h362l486 -1382h-351l-86 256h-477l-84 -256h-317zM444 1622l459 154l66 -217l-477 -105zM469 508h322l-107 315q-16 51 -29.5 98.5t-23.5 94.5h-4q-10 -47 -22.5 -94.5t-29.5 -98.5z" />
<glyph unicode="&#xc2;" horiz-adv-x="1296" d="M-8 0l467 1382h362l486 -1382h-351l-86 256h-477l-84 -256h-317zM289 1599l348 181l348 -178l-67 -148l-283 117l-281 -117zM469 508h322l-107 315q-16 51 -29.5 98.5t-23.5 94.5h-4q-10 -47 -22.5 -94.5t-29.5 -98.5z" />
<glyph unicode="&#xc3;" horiz-adv-x="1296" d="M-8 0l467 1382h362l486 -1382h-351l-86 256h-477l-84 -256h-317zM223 1589q100 180 277 180q53 0 89 -14t62.5 -30.5t50 -31t52.5 -14.5q37 0 63.5 21.5t48.5 62.5l154 -102q-51 -88 -120 -134t-157 -46q-53 0 -89 14t-62.5 30.5t-50 31t-52.5 14.5q-37 0 -63.5 -21.5 t-48.5 -62.5zM469 508h322l-107 315q-16 51 -29.5 98.5t-23.5 94.5h-4q-10 -47 -22.5 -94.5t-29.5 -98.5z" />
<glyph unicode="&#xc4;" horiz-adv-x="1296" d="M-8 0l467 1382h362l486 -1382h-351l-86 256h-477l-84 -256h-317zM268 1618q0 59 41 100t101 41q59 0 100 -41t41 -100t-41 -100t-100 -41t-100.5 41t-41.5 100zM469 508h322l-107 315q-16 51 -29.5 98.5t-23.5 94.5h-4q-10 -47 -22.5 -94.5t-29.5 -98.5zM711 1618 q0 59 41 100t100 41t100 -41t41 -100t-41 -100t-100 -41t-100 41t-41 100z" />
<glyph unicode="&#xc5;" horiz-adv-x="1296" d="M-8 0l440 1300q-31 31 -50.5 74t-19.5 94q0 57 23 106.5t60.5 84.5t88 55.5t107.5 20.5t108.5 -20.5t90.5 -55.5t60.5 -84t21.5 -107q0 -51 -19.5 -94t-52.5 -76l457 -1298h-351l-86 256h-477l-84 -256h-317zM471 508h320l-97 278q-20 57 -36.5 111.5t-26.5 114.5h-4 q-10 -55 -26.5 -118t-39.5 -124zM539 1468q0 -41 30.5 -71.5t71.5 -30.5q43 0 73.5 30.5t30.5 71.5q0 43 -30.5 74t-73.5 31q-41 0 -71.5 -31t-30.5 -74z" />
<glyph unicode="&#xc6;" horiz-adv-x="1613" d="M-72 0l652 1382h925v-268h-452v-274h436v-260h-436v-306h465v-274h-770v287h-369l-127 -287h-324zM483 535h265v579h-5q-29 -78 -57.5 -147.5t-64.5 -145.5z" />
<glyph unicode="&#xc7;" horiz-adv-x="1136" d="M68 641q0 168 45 306t134 237.5t219 154t302 54.5q72 0 145.5 -9.5t137.5 -29.5l-41 -291q-117 43 -248 43q-168 0 -256 -111.5t-88 -300.5q0 -205 86 -313.5t274 -108.5q53 0 120 13.5t116 38.5l45 -283q-74 -29 -164 -44t-180 -15q-190 0 -315.5 59t-199 153.5 t-103 212t-29.5 234.5zM479 -479q72 84 80 157.5t-66 167.5l254 74q80 -115 63.5 -215t-102.5 -184h-229z" />
<glyph unicode="&#xc8;" horiz-adv-x="997" d="M123 0v1382h778v-268h-459v-274h435v-260h-435v-306h459v-274h-778zM162 1559l65 217l459 -154l-47 -168z" />
<glyph unicode="&#xc9;" horiz-adv-x="997" d="M123 0v1382h778v-268h-459v-274h435v-260h-435v-306h459v-274h-778zM356 1622l459 154l66 -217l-478 -105z" />
<glyph unicode="&#xca;" horiz-adv-x="997" d="M123 0v1382h778v-268h-459v-274h435v-260h-435v-306h459v-274h-778zM158 1599l348 181l348 -178l-68 -148l-282 117l-281 -117z" />
<glyph unicode="&#xcb;" horiz-adv-x="997" d="M123 0v1382h778v-268h-459v-274h435v-260h-435v-306h459v-274h-778zM141 1618q0 59 41 100t101 41q59 0 100 -41t41 -100t-41 -100t-100 -41t-100.5 41t-41.5 100zM586 1618q0 59 41 100t100 41t100 -41t41 -100t-41 -100t-100 -41t-100 41t-41 100z" />
<glyph unicode="&#xcc;" horiz-adv-x="565" d="M-37 1559l66 217l458 -154l-47 -168zM123 0v1382h319v-1382h-319z" />
<glyph unicode="&#xcd;" horiz-adv-x="565" d="M68 1622l458 154l66 -217l-475 -105zM123 0v1382h319v-1382h-319z" />
<glyph unicode="&#xce;" horiz-adv-x="565" d="M-66 1599l349 181l348 -178l-68 -148l-282 117l-281 -117zM123 0v1382h319v-1382h-319z" />
<glyph unicode="&#xcf;" horiz-adv-x="565" d="M-86 1618q0 59 41 100t100 41t100.5 -41t41.5 -100t-41 -100t-101 -41q-59 0 -100 41t-41 100zM123 0v1382h319v-1382h-319zM358 1618q0 59 41 100t101 41q59 0 100 -41t41 -100t-41 -100t-100 -41t-100.5 41t-41.5 100z" />
<glyph unicode="&#xd0;" horiz-adv-x="1363" d="M6 578v239h135v561q80 4 204 8.5t263 4.5q156 0 283 -36t218 -116t140 -208t49 -312q0 -178 -54 -314.5t-152.5 -228.5t-237.5 -139t-309 -47q-109 0 -208 4t-196 8v576h-135zM455 272q12 -4 48 -6t72 -2q82 0 153 25.5t122 78t79.5 134t28.5 192.5q0 96 -17 175 t-59 135.5t-114 87t-180 30.5h-73t-60 -4v-301h219v-239h-219v-306z" />
<glyph unicode="&#xd1;" horiz-adv-x="1419" d="M123 0v1382h409l304 -546q47 -86 89 -173.5t79 -166.5q-4 45 -7.5 99t-4.5 111.5l-2 115t-1 106.5v454h307v-1382h-407l-326 596q-43 80 -78.5 157.5t-64.5 145.5q4 -78 7 -176t3 -197v-526h-307zM291 1589q51 88 119.5 134t156.5 46q53 0 89 -14t64 -30.5t51.5 -31 t51.5 -14.5q35 0 61.5 21.5t49.5 62.5l153 -102q-51 -88 -118.5 -134t-157.5 -46q-53 0 -89 14t-62.5 30.5t-50 31t-52.5 14.5q-37 0 -63.5 -21.5t-49.5 -62.5z" />
<glyph unicode="&#xd2;" horiz-adv-x="1437" d="M57 674q0 168 54.5 304t147.5 232.5t218 147.5t266 51q137 0 254 -41t202 -126t133 -216t48 -313q0 -170 -53 -307.5t-146.5 -233.5t-218 -147.5t-268.5 -51.5q-160 0 -279.5 48.5t-199.5 139.5t-119 220t-39 293zM395 700q0 -201 77 -317.5t241 -116.5q57 0 115.5 22.5 t105.5 73t77.5 132t30.5 198.5q0 211 -81.5 318.5t-241.5 107.5q-61 0 -119.5 -24.5t-103.5 -75.5t-73 -130t-28 -188zM397 1559l66 217l457 -154l-48 -168z" />
<glyph unicode="&#xd3;" horiz-adv-x="1437" d="M57 674q0 168 54.5 304t147.5 232.5t218 147.5t266 51q137 0 254 -41t202 -126t133 -216t48 -313q0 -170 -53 -307.5t-146.5 -233.5t-218 -147.5t-268.5 -51.5q-160 0 -279.5 48.5t-199.5 139.5t-119 220t-39 293zM395 700q0 -201 77 -317.5t241 -116.5q57 0 115.5 22.5 t105.5 73t77.5 132t30.5 198.5q0 211 -81.5 318.5t-241.5 107.5q-61 0 -119.5 -24.5t-103.5 -75.5t-73 -130t-28 -188zM547 1622l459 154l65 -217l-477 -105z" />
<glyph unicode="&#xd4;" horiz-adv-x="1437" d="M57 674q0 168 54.5 304t147.5 232.5t218 147.5t266 51q137 0 254 -41t202 -126t133 -216t48 -313q0 -170 -53 -307.5t-146.5 -233.5t-218 -147.5t-268.5 -51.5q-160 0 -279.5 48.5t-199.5 139.5t-119 220t-39 293zM395 700q0 -201 77 -317.5t241 -116.5q57 0 115.5 22.5 t105.5 73t77.5 132t30.5 198.5q0 211 -81.5 318.5t-241.5 107.5q-61 0 -119.5 -24.5t-103.5 -75.5t-73 -130t-28 -188zM399 1599l349 181l350 -178l-68 -148l-282 117l-281 -117z" />
<glyph unicode="&#xd5;" horiz-adv-x="1437" d="M57 674q0 168 54.5 304t147.5 232.5t218 147.5t266 51q137 0 254 -41t202 -126t133 -216t48 -313q0 -170 -53 -307.5t-146.5 -233.5t-218 -147.5t-268.5 -51.5q-160 0 -279.5 48.5t-199.5 139.5t-119 220t-39 293zM311 1589q100 180 277 180q53 0 89 -14t62.5 -30.5 t50 -31t52.5 -14.5q37 0 63.5 21.5t48.5 62.5l154 -102q-51 -88 -119.5 -134t-157.5 -46q-53 0 -88.5 14t-62.5 30.5t-50.5 31t-51.5 14.5q-37 0 -64 -21.5t-49 -62.5zM395 700q0 -201 77 -317.5t241 -116.5q57 0 115.5 22.5t105.5 73t77.5 132t30.5 198.5 q0 211 -81.5 318.5t-241.5 107.5q-61 0 -119.5 -24.5t-103.5 -75.5t-73 -130t-28 -188z" />
<glyph unicode="&#xd6;" horiz-adv-x="1437" d="M57 674q0 168 54.5 304t147.5 232.5t218 147.5t266 51q137 0 254 -41t202 -126t133 -216t48 -313q0 -170 -53 -307.5t-146.5 -233.5t-218 -147.5t-268.5 -51.5q-160 0 -279.5 48.5t-199.5 139.5t-119 220t-39 293zM371 1618q0 59 41 100t100 41t100 -41t41 -100t-41 -100 t-100 -41t-100 41t-41 100zM395 700q0 -201 77 -317.5t241 -116.5q57 0 115.5 22.5t105.5 73t77.5 132t30.5 198.5q0 211 -81.5 318.5t-241.5 107.5q-61 0 -119.5 -24.5t-103.5 -75.5t-73 -130t-28 -188zM813 1618q0 59 41 100t100 41t100.5 -41t41.5 -100t-41 -100 t-101 -41q-59 0 -100 41t-41 100z" />
<glyph unicode="&#xd7;" d="M84 301l297 297l-297 297l192 192l297 -296l297 296l172 -172l-299 -294l299 -299l-192 -193l-299 299l-295 -299z" />
<glyph unicode="&#xd8;" horiz-adv-x="1437" d="M57 674q0 168 53.5 304t146.5 232.5t218 147.5t268 51q39 0 82 -6l64 188l231 -69l-61 -179q145 -72 233 -224t88 -408q0 -170 -53 -307.5t-145 -232.5t-218 -146.5t-272 -51.5q-29 0 -52.5 2t-47.5 7l-68 -199l-229 72l65 190q-156 82 -229.5 246t-73.5 383zM381 700 q0 -229 90 -325l262 749q-25 0 -49.5 -2t-50.5 -10q-106 -27 -179 -129t-73 -283zM684 260q33 -6 76 -2q55 8 109.5 37t95.5 81t66.5 129.5t25.5 186.5q0 111 -25.5 200t-79.5 138z" />
<glyph unicode="&#xd9;" horiz-adv-x="1378" d="M123 487v895h319v-876q0 -61 11.5 -109.5t39 -83t75.5 -53t122 -18.5q135 0 192.5 63.5t57.5 218.5v858h315v-839q0 -293 -155.5 -431.5t-429.5 -138.5q-166 0 -271.5 41t-167 112t-85 164t-23.5 197zM326 1559l65 217l459 -154l-49 -168z" />
<glyph unicode="&#xda;" horiz-adv-x="1378" d="M123 487v895h319v-876q0 -61 11.5 -109.5t39 -83t75.5 -53t122 -18.5q135 0 192.5 63.5t57.5 218.5v858h315v-839q0 -293 -155.5 -431.5t-429.5 -138.5q-166 0 -271.5 41t-167 112t-85 164t-23.5 197zM532 1622l459 154l66 -217l-477 -105z" />
<glyph unicode="&#xdb;" horiz-adv-x="1378" d="M123 487v895h319v-876q0 -61 11.5 -109.5t39 -83t75.5 -53t122 -18.5q135 0 192.5 63.5t57.5 218.5v858h315v-839q0 -293 -155.5 -431.5t-429.5 -138.5q-166 0 -271.5 41t-167 112t-85 164t-23.5 197zM344 1599l348 181l348 -178l-67 -148l-283 117l-280 -117z" />
<glyph unicode="&#xdc;" horiz-adv-x="1378" d="M123 487v895h319v-876q0 -61 11.5 -109.5t39 -83t75.5 -53t122 -18.5q135 0 192.5 63.5t57.5 218.5v858h315v-839q0 -293 -155.5 -431.5t-429.5 -138.5q-166 0 -271.5 41t-167 112t-85 164t-23.5 197zM313 1618q0 59 41 100t101 41q59 0 100 -41t41 -100t-41 -100 t-100 -41t-100.5 41t-41.5 100zM758 1618q0 59 41 100t100 41t100 -41t41 -100t-41 -100t-100 -41t-100 41t-41 100z" />
<glyph unicode="&#xdd;" horiz-adv-x="1183" d="M-4 1382h348l158 -352q55 -123 88 -221h4q20 59 48 121.5t58 128.5l150 323h336l-438 -899v-483h-320v481zM416 1622l458 154l66 -217l-477 -105z" />
<glyph unicode="&#xde;" horiz-adv-x="1132" d="M123 0v1382h319v-182q29 2 59.5 3t76.5 1q244 0 386 -115t142 -344q0 -106 -40 -198t-114.5 -161t-181 -107.5t-240.5 -38.5h-46t-42 2v-242h-319zM442 506q23 -4 48.5 -6t54.5 -2q98 0 164.5 56t66.5 173q0 92 -55 154.5t-186 62.5q-23 0 -45.5 -1t-47.5 -3v-434z" />
<glyph unicode="&#xdf;" horiz-adv-x="1263" d="M121 0v1004q0 137 41 234t111.5 157.5t163.5 88t196 27.5q98 0 180 -21.5t141.5 -62.5t92 -100t32.5 -137q0 -96 -33.5 -149.5t-73.5 -90.5t-73 -69.5t-33 -87.5q0 -37 26 -65t64.5 -53.5t82.5 -53t83 -66.5t64.5 -92t25.5 -131q0 -82 -32.5 -148.5t-90 -112.5 t-137.5 -72t-174 -26q-72 0 -130 9.5t-97 25.5l14 252q41 -23 90.5 -35t98.5 -12q76 0 104.5 27.5t28.5 62.5q0 37 -24.5 63.5t-62.5 51t-82 50.5t-82 62.5t-62.5 90t-24.5 131.5q0 88 31.5 142t69.5 96t70 81t32 100q0 47 -35 73t-94 26q-88 0 -139.5 -61.5t-51.5 -190.5 v-1018h-311z" />
<glyph unicode="&#xe0;" horiz-adv-x="1077" d="M66 279q0 96 43 164.5t118.5 111.5t181 63.5t230.5 20.5v41q0 63 -40 94t-142 31q-68 0 -143.5 -19.5t-137.5 -48.5l-53 244q80 29 183.5 46t203.5 17q129 0 214 -23.5t136 -69.5t71.5 -111.5t20.5 -149.5v-448q0 -55 2 -119t7 -123h-293q0 37 1 76t7 78h-2 q-37 -80 -121 -128.5t-191 -48.5q-74 0 -129 24t-92 64.5t-56 95t-19 118.5zM234 1348l135 208l385 -253l-109 -170zM360 311q0 -41 27 -68.5t76 -27.5q39 0 71.5 16.5t55 43t36 62.5t13.5 73v32q-82 0 -136 -10t-86 -27.5t-44.5 -41t-12.5 -52.5z" />
<glyph unicode="&#xe1;" horiz-adv-x="1077" d="M66 279q0 96 43 164.5t118.5 111.5t181 63.5t230.5 20.5v41q0 63 -40 94t-142 31q-68 0 -143.5 -19.5t-137.5 -48.5l-53 244q80 29 183.5 46t203.5 17q129 0 214 -23.5t136 -69.5t71.5 -111.5t20.5 -149.5v-448q0 -55 2 -119t7 -123h-293q0 37 1 76t7 78h-2 q-37 -80 -121 -128.5t-191 -48.5q-74 0 -129 24t-92 64.5t-56 95t-19 118.5zM336 1303l387 253l135 -208l-411 -215zM360 311q0 -41 27 -68.5t76 -27.5q39 0 71.5 16.5t55 43t36 62.5t13.5 73v32q-82 0 -136 -10t-86 -27.5t-44.5 -41t-12.5 -52.5z" />
<glyph unicode="&#xe2;" horiz-adv-x="1077" d="M66 279q0 96 43 164.5t118.5 111.5t181 63.5t230.5 20.5v41q0 63 -40 94t-142 31q-68 0 -143.5 -19.5t-137.5 -48.5l-53 244q80 29 183.5 46t203.5 17q129 0 214 -23.5t136 -69.5t71.5 -111.5t20.5 -149.5v-448q0 -55 2 -119t7 -123h-293q0 37 1 76t7 78h-2 q-37 -80 -121 -128.5t-191 -48.5q-74 0 -129 24t-92 64.5t-56 95t-19 118.5zM209 1274l334 282l334 -282l-117 -141l-217 161l-217 -161zM360 311q0 -41 27 -68.5t76 -27.5q39 0 71.5 16.5t55 43t36 62.5t13.5 73v32q-82 0 -136 -10t-86 -27.5t-44.5 -41t-12.5 -52.5z" />
<glyph unicode="&#xe3;" horiz-adv-x="1077" d="M66 279q0 96 43 164.5t118.5 111.5t181 63.5t230.5 20.5v41q0 63 -40 94t-142 31q-68 0 -143.5 -19.5t-137.5 -48.5l-53 244q80 29 183.5 46t203.5 17q129 0 214 -23.5t136 -69.5t71.5 -111.5t20.5 -149.5v-448q0 -55 2 -119t7 -123h-293q0 37 1 76t7 78h-2 q-37 -80 -121 -128.5t-191 -48.5q-74 0 -129 24t-92 64.5t-56 95t-19 118.5zM146 1286q47 98 112.5 148.5t151.5 50.5q51 0 86 -15.5t61.5 -34t49 -34t51.5 -15.5q35 0 59.5 23t46.5 68l146 -111q-94 -199 -264 -199q-51 0 -86 15.5t-60.5 34t-49.5 34t-50 15.5 q-35 0 -59.5 -22.5t-49.5 -67.5zM360 311q0 -41 27 -68.5t76 -27.5q39 0 71.5 16.5t55 43t36 62.5t13.5 73v32q-82 0 -136 -10t-86 -27.5t-44.5 -41t-12.5 -52.5z" />
<glyph unicode="&#xe4;" horiz-adv-x="1077" d="M66 279q0 96 43 164.5t118.5 111.5t181 63.5t230.5 20.5v41q0 63 -40 94t-142 31q-68 0 -143.5 -19.5t-137.5 -48.5l-53 244q80 29 183.5 46t203.5 17q129 0 214 -23.5t136 -69.5t71.5 -111.5t20.5 -149.5v-448q0 -55 2 -119t7 -123h-293q0 37 1 76t7 78h-2 q-37 -80 -121 -128.5t-191 -48.5q-74 0 -129 24t-92 64.5t-56 95t-19 118.5zM164 1321q0 66 48 114t114 48q68 0 114.5 -48t46.5 -114q0 -68 -47 -115t-114 -47q-66 0 -114 47t-48 115zM360 311q0 -41 27 -68.5t76 -27.5q39 0 71.5 16.5t55 43t36 62.5t13.5 73v32 q-82 0 -136 -10t-86 -27.5t-44.5 -41t-12.5 -52.5zM592 1321q0 66 48 114t114 48q68 0 114.5 -48t46.5 -114q0 -68 -47 -115t-114 -47q-66 0 -114 47t-48 115z" />
<glyph unicode="&#xe5;" horiz-adv-x="1077" d="M66 279q0 96 43 164.5t118.5 111.5t181 63.5t230.5 20.5v41q0 63 -40 94t-142 31q-68 0 -143.5 -19.5t-137.5 -48.5l-53 244q80 29 183.5 46t203.5 17q129 0 214 -23.5t136 -69.5t71.5 -111.5t20.5 -149.5v-448q0 -55 2 -119t7 -123h-293q0 37 1 76t7 78h-2 q-37 -80 -121 -128.5t-191 -48.5q-74 0 -129 24t-92 64.5t-56 95t-19 118.5zM256 1372q0 57 21.5 106t59.5 84t89 55.5t108 20.5t108.5 -20.5t89.5 -55.5t59.5 -84t21.5 -106t-21.5 -105.5t-59.5 -84.5t-89 -55t-109 -19q-57 0 -108 19t-89 55t-59.5 84t-21.5 106zM360 311 q0 -41 27 -68.5t76 -27.5q39 0 71.5 16.5t55 43t36 62.5t13.5 73v32q-82 0 -136 -10t-86 -27.5t-44.5 -41t-12.5 -52.5zM432 1372q0 -41 29.5 -72t72.5 -31t73 31t30 72q0 43 -29.5 73.5t-73.5 30.5q-43 0 -72.5 -30.5t-29.5 -73.5z" />
<glyph unicode="&#xe6;" horiz-adv-x="1630" d="M66 279q0 96 43 164.5t118.5 111.5t181 63.5t230.5 20.5v41q0 63 -40 94t-142 31q-68 0 -143.5 -19.5t-137.5 -48.5l-53 244q80 29 183.5 46t203.5 17q98 0 181 -21.5t143 -86.5h2q47 47 119.5 76.5t164.5 29.5q115 0 198 -36.5t137 -100t80 -150t26 -186.5 q0 -33 -2.5 -66.5t-8.5 -72.5h-604q0 -100 61.5 -155.5t190.5 -55.5q72 0 147.5 15.5t149.5 48.5l31 -236q-88 -35 -186.5 -52.5t-194.5 -17.5q-158 0 -262.5 51.5t-147.5 141.5h-2q-49 -86 -140 -139.5t-226 -53.5q-74 0 -130.5 24t-94.5 64.5t-57 95t-19 118.5zM360 311 q0 -41 27 -68.5t76 -27.5q39 0 71.5 16.5t55 43t36 62.5t13.5 73v32q-82 0 -136 -10t-86 -27.5t-44.5 -41t-12.5 -52.5zM946 637h309q4 88 -35.5 133t-107.5 45q-70 0 -114 -49t-52 -129z" />
<glyph unicode="&#xe7;" horiz-adv-x="856" d="M61 477q0 115 32 217.5t96.5 179t165 121.5t239.5 45q53 0 106.5 -8t100.5 -24l-47 -271q-80 35 -162 35q-104 0 -154.5 -72.5t-50.5 -197.5q0 -117 50 -184.5t155 -67.5q45 0 89 8t83 27l37 -262q-57 -23 -129 -34.5t-144 -11.5q-233 0 -350 126t-117 374zM303 -479 q72 84 80 157.5t-66 167.5l254 74q80 -115 63.5 -215t-102.5 -184h-229z" />
<glyph unicode="&#xe8;" horiz-adv-x="1062" d="M61 498q0 117 32 217t94.5 173t153.5 113.5t210 40.5q115 0 199 -36.5t138 -100t79.5 -150t25.5 -186.5q0 -33 -3 -66.5t-7 -72.5h-606q2 -100 63.5 -155.5t188.5 -55.5q74 0 149.5 15.5t149.5 48.5l30 -236q-88 -35 -187 -52.5t-193 -17.5q-250 0 -383.5 125t-133.5 396 zM252 1348l135 208l385 -253l-109 -170zM377 637h309q4 88 -36 133t-107 45q-68 0 -113 -49t-53 -129z" />
<glyph unicode="&#xe9;" horiz-adv-x="1062" d="M61 498q0 117 32 217t94.5 173t153.5 113.5t210 40.5q115 0 199 -36.5t138 -100t79.5 -150t25.5 -186.5q0 -33 -3 -66.5t-7 -72.5h-606q2 -100 63.5 -155.5t188.5 -55.5q74 0 149.5 15.5t149.5 48.5l30 -236q-88 -35 -187 -52.5t-193 -17.5q-250 0 -383.5 125t-133.5 396 zM352 1303l387 253l135 -208l-411 -215zM377 637h309q4 88 -36 133t-107 45q-68 0 -113 -49t-53 -129z" />
<glyph unicode="&#xea;" horiz-adv-x="1062" d="M61 498q0 117 32 217t94.5 173t153.5 113.5t210 40.5q115 0 199 -36.5t138 -100t79.5 -150t25.5 -186.5q0 -33 -3 -66.5t-7 -72.5h-606q2 -100 63.5 -155.5t188.5 -55.5q74 0 149.5 15.5t149.5 48.5l30 -236q-88 -35 -187 -52.5t-193 -17.5q-250 0 -383.5 125t-133.5 396 zM209 1274l334 282l334 -282l-117 -141l-217 161l-217 -161zM377 637h309q4 88 -36 133t-107 45q-68 0 -113 -49t-53 -129z" />
<glyph unicode="&#xeb;" horiz-adv-x="1062" d="M61 498q0 117 32 217t94.5 173t153.5 113.5t210 40.5q115 0 199 -36.5t138 -100t79.5 -150t25.5 -186.5q0 -33 -3 -66.5t-7 -72.5h-606q2 -100 63.5 -155.5t188.5 -55.5q74 0 149.5 15.5t149.5 48.5l30 -236q-88 -35 -187 -52.5t-193 -17.5q-250 0 -383.5 125t-133.5 396 zM176 1321q0 66 48 114t114 48q68 0 114.5 -48t46.5 -114q0 -68 -47 -115t-114 -47q-66 0 -114 47t-48 115zM377 637h309q4 88 -36 133t-107 45q-68 0 -113 -49t-53 -129zM604 1321q0 66 48 114t114 48q68 0 114.5 -48t46.5 -114q0 -68 -47 -115t-114 -47q-66 0 -114 47 t-48 115z" />
<glyph unicode="&#xec;" horiz-adv-x="555" d="M21 1348l135 208l385 -253l-109 -170zM121 0v1018h311v-1018h-311z" />
<glyph unicode="&#xed;" horiz-adv-x="555" d="M0 1303l387 253l135 -208l-411 -215zM121 0v1018h311v-1018h-311z" />
<glyph unicode="&#xee;" horiz-adv-x="555" d="M-54 1274l334 282l334 -282l-117 -141l-217 161l-217 -161zM121 0v1018h311v-1018h-311z" />
<glyph unicode="&#xef;" horiz-adv-x="555" d="M-94 1321q0 66 48 114t114 48q68 0 114.5 -48t46.5 -114q0 -68 -47 -115t-114 -47q-66 0 -114 47t-48 115zM121 0v1018h311v-1018h-311zM334 1321q0 66 48 114t114 48q68 0 114.5 -48t46.5 -114q0 -68 -47 -115t-114 -47q-66 0 -114 47t-48 115z" />
<glyph unicode="&#xf0;" horiz-adv-x="1146" d="M59 485q0 127 39 229.5t106.5 173t159 108.5t195.5 38q37 0 72 -10t55 -33q-10 20 -21.5 36.5t-21.5 33.5q-33 55 -94 119l-176 -78l-123 141l156 68q-35 29 -71 54.5t-77 51.5l303 127q35 -27 68 -54.5t63 -57.5l168 71l123 -139l-164 -70q129 -158 194.5 -337.5 t65.5 -378.5q0 -152 -41 -264.5t-112.5 -187.5t-166.5 -112t-202 -37q-109 0 -201 31t-157.5 93.5t-102.5 157.5t-37 226zM383 512q0 -133 52 -198.5t140 -65.5q84 0 132.5 68.5t48.5 215.5q0 111 -45 176.5t-142 65.5q-76 0 -131 -63.5t-55 -198.5z" />
<glyph unicode="&#xf1;" horiz-adv-x="1163" d="M121 0v1018h291q0 -29 -2 -76t-11 -84l2 -2q47 80 131 132t207 52q86 0 143.5 -25.5t92.5 -69.5t50 -103.5t15 -124.5v-717h-311v647q0 61 -20.5 96t-73.5 35q-41 0 -78 -23.5t-64.5 -63.5t-44 -91t-16.5 -106v-494h-311zM203 1286q47 98 112.5 148.5t151.5 50.5 q51 0 86 -15.5t61.5 -34t49 -34t51.5 -15.5q35 0 59.5 23t46.5 68l146 -111q-94 -199 -264 -199q-51 0 -86 15.5t-60.5 34t-49.5 34t-50 15.5q-35 0 -59.5 -22.5t-49.5 -67.5z" />
<glyph unicode="&#xf2;" horiz-adv-x="1142" d="M57 485q0 125 40 227.5t113 175.5t171 112.5t215 39.5q233 0 360 -127t127 -383q0 -123 -41 -225t-112.5 -175t-169.5 -113t-213 -40q-111 0 -201 29t-154.5 90.5t-99.5 157.5t-35 231zM279 1348l135 208l385 -253l-109 -170zM381 520q0 -141 45 -206.5t143 -65.5 q86 0 138.5 67.5t52.5 196.5q0 131 -43 196.5t-142 65.5q-37 0 -71.5 -14.5t-62 -45t-44 -78.5t-16.5 -116z" />
<glyph unicode="&#xf3;" horiz-adv-x="1142" d="M57 485q0 125 40 227.5t113 175.5t171 112.5t215 39.5q233 0 360 -127t127 -383q0 -123 -41 -225t-112.5 -175t-169.5 -113t-213 -40q-111 0 -201 29t-154.5 90.5t-99.5 157.5t-35 231zM379 1303l387 253l135 -208l-411 -215zM381 520q0 -141 45 -206.5t143 -65.5 q86 0 138.5 67.5t52.5 196.5q0 131 -43 196.5t-142 65.5q-37 0 -71.5 -14.5t-62 -45t-44 -78.5t-16.5 -116z" />
<glyph unicode="&#xf4;" horiz-adv-x="1142" d="M57 485q0 125 40 227.5t113 175.5t171 112.5t215 39.5q233 0 360 -127t127 -383q0 -123 -41 -225t-112.5 -175t-169.5 -113t-213 -40q-111 0 -201 29t-154.5 90.5t-99.5 157.5t-35 231zM248 1274l334 282l334 -282l-117 -141l-217 161l-217 -161zM381 520 q0 -141 45 -206.5t143 -65.5q86 0 138.5 67.5t52.5 196.5q0 131 -43 196.5t-142 65.5q-37 0 -71.5 -14.5t-62 -45t-44 -78.5t-16.5 -116z" />
<glyph unicode="&#xf5;" horiz-adv-x="1142" d="M57 485q0 125 40 227.5t113 175.5t171 112.5t215 39.5q233 0 360 -127t127 -383q0 -123 -41 -225t-112.5 -175t-169.5 -113t-213 -40q-111 0 -201 29t-154.5 90.5t-99.5 157.5t-35 231zM197 1286q47 98 112.5 148.5t151.5 50.5q51 0 86 -15.5t61.5 -34t49 -34t51.5 -15.5 q35 0 59.5 23t46.5 68l146 -111q-94 -199 -264 -199q-51 0 -86 15.5t-60.5 34t-49.5 34t-50 15.5q-35 0 -59.5 -22.5t-49.5 -67.5zM381 520q0 -141 45 -206.5t143 -65.5q86 0 138.5 67.5t52.5 196.5q0 131 -43 196.5t-142 65.5q-37 0 -71.5 -14.5t-62 -45t-44 -78.5 t-16.5 -116z" />
<glyph unicode="&#xf6;" horiz-adv-x="1142" d="M57 485q0 125 40 227.5t113 175.5t171 112.5t215 39.5q233 0 360 -127t127 -383q0 -123 -41 -225t-112.5 -175t-169.5 -113t-213 -40q-111 0 -201 29t-154.5 90.5t-99.5 157.5t-35 231zM209 1321q0 66 48 114t114 48q68 0 114.5 -48t46.5 -114q0 -68 -47 -115t-114 -47 q-66 0 -114 47t-48 115zM381 520q0 -141 45 -206.5t143 -65.5q86 0 138.5 67.5t52.5 196.5q0 131 -43 196.5t-142 65.5q-37 0 -71.5 -14.5t-62 -45t-44 -78.5t-16.5 -116zM637 1321q0 66 48 114t114 48q68 0 114.5 -48t46.5 -114q0 -68 -47 -115t-114 -47q-66 0 -114 47 t-48 115z" />
<glyph unicode="&#xf7;" d="M76 479v262h975v-262h-975zM379 199q0 78 53 131t131 53q76 0 129 -53t53 -131q0 -76 -53 -130.5t-129 -54.5q-78 0 -131 54.5t-53 130.5zM379 1020q0 76 53 130t131 54q76 0 129 -54t53 -130t-53 -130t-129 -54q-78 0 -131 54t-53 130z" />
<glyph unicode="&#xf8;" horiz-adv-x="1142" d="M57 485q0 127 41 229.5t113 175.5t170 111.5t215 38.5h34.5t39.5 -4l73 191l175 -51l-72 -185q49 -27 93 -65.5t76 -95t50 -130.5t18 -170q0 -125 -41 -226t-112.5 -174t-169.5 -113t-213 -40q-23 0 -47.5 2.5t-44.5 6.5l-82 -207l-172 53l78 201q-109 57 -165.5 170.5 t-56.5 281.5zM352 520q0 -57 10.5 -109.5t32.5 -84.5l178 462q-23 2 -51 -4q-33 -8 -63.5 -25.5t-54 -49t-38 -77.5t-14.5 -112zM549 236q14 -2 28.5 -3.5t30.5 0.5q74 10 128.5 77t54.5 200q0 68 -13.5 116t-42.5 89z" />
<glyph unicode="&#xf9;" horiz-adv-x="1159" d="M119 301v717h313v-647q0 -61 20.5 -96t73.5 -35q41 0 78 23.5t64.5 63.5t43 91t15.5 106v494h313v-1018h-290q0 29 2 76t10 84l-4 2q-47 -80 -130 -132.5t-206 -52.5q-86 0 -143.5 26t-93 70t-51 103.5t-15.5 124.5zM246 1348l135 208l385 -253l-109 -170z" />
<glyph unicode="&#xfa;" horiz-adv-x="1159" d="M119 301v717h313v-647q0 -61 20.5 -96t73.5 -35q41 0 78 23.5t64.5 63.5t43 91t15.5 106v494h313v-1018h-290q0 29 2 76t10 84l-4 2q-47 -80 -130 -132.5t-206 -52.5q-86 0 -143.5 26t-93 70t-51 103.5t-15.5 124.5zM416 1303l387 253l135 -208l-411 -215z" />
<glyph unicode="&#xfb;" horiz-adv-x="1159" d="M119 301v717h313v-647q0 -61 20.5 -96t73.5 -35q41 0 78 23.5t64.5 63.5t43 91t15.5 106v494h313v-1018h-290q0 29 2 76t10 84l-4 2q-47 -80 -130 -132.5t-206 -52.5q-86 0 -143.5 26t-93 70t-51 103.5t-15.5 124.5zM239 1274l334 282l334 -282l-117 -141l-217 161 l-217 -161z" />
<glyph unicode="&#xfc;" horiz-adv-x="1159" d="M119 301v717h313v-647q0 -61 20.5 -96t73.5 -35q41 0 78 23.5t64.5 63.5t43 91t15.5 106v494h313v-1018h-290q0 29 2 76t10 84l-4 2q-47 -80 -130 -132.5t-206 -52.5q-86 0 -143.5 26t-93 70t-51 103.5t-15.5 124.5zM189 1321q0 66 48 114t114 48q68 0 114.5 -48 t46.5 -114q0 -68 -47 -115t-114 -47q-66 0 -114 47t-48 115zM617 1321q0 66 48 114t114 48q68 0 114.5 -48t46.5 -114q0 -68 -47 -115t-114 -47q-66 0 -114 47t-48 115z" />
<glyph unicode="&#xfd;" horiz-adv-x="1056" d="M-27 -487l35 266q31 -10 66 -15.5t69 -5.5q27 0 56.5 7.5t57.5 26t52.5 51t40.5 81.5l25 76l-369 1018h344l103 -297q23 -66 44 -144.5t38 -152.5h2q18 78 45.5 171t50.5 157l92 266h334l-395 -1057q-53 -139 -109.5 -228t-121 -141.5t-139.5 -73t-163 -20.5q-35 0 -80 4 t-78 11zM397 1303l387 253l135 -208l-411 -215z" />
<glyph unicode="&#xfe;" horiz-adv-x="1144" d="M121 -485v1980h311v-397q0 -43 -1 -96.5t-7 -100.5l4 -2q37 61 104.5 101t178.5 40q182 0 276 -126t94 -349q0 -131 -33.5 -237.5t-101 -183t-170 -118.5t-239.5 -42q-29 0 -54.5 2t-50.5 6v-477h-311zM432 240q49 -12 109 -13q45 0 84 15.5t66.5 51.5t44 94t16.5 144 q0 250 -140 250q-41 0 -73.5 -21.5t-56 -60t-37 -93t-13.5 -118.5v-249z" />
<glyph unicode="&#xff;" horiz-adv-x="1056" d="M-27 -487l35 266q31 -10 66 -15.5t69 -5.5q27 0 56.5 7.5t57.5 26t52.5 51t40.5 81.5l25 76l-369 1018h344l103 -297q23 -66 44 -144.5t38 -152.5h2q18 78 45.5 171t50.5 157l92 266h334l-395 -1057q-53 -139 -109.5 -228t-121 -141.5t-139.5 -73t-163 -20.5q-35 0 -80 4 t-78 11zM162 1321q0 66 48 114t114 48q68 0 114.5 -48t46.5 -114q0 -68 -47 -115t-114 -47q-66 0 -114 47t-48 115zM590 1321q0 66 48 114t114 48q68 0 114.5 -48t46.5 -114q0 -68 -47 -115t-114 -47q-66 0 -114 47t-48 115z" />
<glyph unicode="&#x152;" horiz-adv-x="1757" d="M57 674q0 168 54.5 304t146.5 232.5t214 147.5t259 51q61 0 115.5 -7t105.5 -20h709v-268h-459v-274h434v-260h-434v-306h459v-274h-746q-51 -10 -107 -18.5t-114 -8.5q-160 0 -279.5 48.5t-199.5 139.5t-119 220t-39 293zM395 700q0 -201 77 -317.5t241 -116.5 q41 0 86 9.5t84 25.5v791q-76 27 -164 26q-61 0 -119.5 -24.5t-103.5 -75.5t-73 -130t-28 -188z" />
<glyph unicode="&#x153;" horiz-adv-x="1742" d="M57 485q0 125 40 227.5t112 175.5t171 112.5t216 39.5q90 0 177 -29.5t147 -92.5q57 59 133.5 91.5t179.5 32.5q115 0 197.5 -36.5t137 -100t80 -150t25.5 -186.5q0 -33 -2 -66.5t-6 -72.5h-606q0 -100 62.5 -155.5t189.5 -55.5q72 0 147.5 15.5t149.5 48.5l30 -236 q-88 -35 -186 -52.5t-192 -17.5q-131 0 -220.5 36t-150.5 104q-57 -63 -146.5 -101.5t-195.5 -38.5q-111 0 -201 28t-154.5 89.5t-99.5 157.5t-35 233zM381 520q0 -141 45 -206.5t143 -65.5q86 0 138.5 67.5t52.5 196.5q0 131 -43 196.5t-142 65.5q-37 0 -71.5 -14.5 t-62 -45t-44 -78.5t-16.5 -116zM1059 637h309q4 88 -36 133t-107 45q-70 0 -114 -49t-52 -129z" />
<glyph unicode="&#x178;" horiz-adv-x="1183" d="M-4 1382h348l158 -352q55 -123 88 -221h4q20 59 48 121.5t58 128.5l150 323h336l-438 -899v-483h-320v481zM219 1618q0 59 41 100t100 41t100.5 -41t41.5 -100t-41 -100t-101 -41q-59 0 -100 41t-41 100zM662 1618q0 59 40.5 100t100.5 41q59 0 100 -41t41 -100t-41 -100 t-100 -41t-100 41t-41 100z" />
<glyph unicode="&#x2c6;" horiz-adv-x="864" d="M96 1274l334 282l334 -282l-117 -141l-217 161l-217 -161z" />
<glyph unicode="&#x2dc;" horiz-adv-x="917" d="M80 1286q47 98 112.5 148.5t151.5 50.5q51 0 86 -15.5t61.5 -34t49 -34t51.5 -15.5q35 0 59.5 23t46.5 68l146 -111q-94 -199 -264 -199q-51 0 -86 15.5t-60.5 34t-49.5 34t-50 15.5q-35 0 -59.5 -22.5t-49.5 -67.5z" />
<glyph unicode="&#x2000;" horiz-adv-x="890" />
<glyph unicode="&#x2001;" horiz-adv-x="1780" />
<glyph unicode="&#x2002;" horiz-adv-x="890" />
<glyph unicode="&#x2003;" horiz-adv-x="1780" />
<glyph unicode="&#x2004;" horiz-adv-x="593" />
<glyph unicode="&#x2005;" horiz-adv-x="445" />
<glyph unicode="&#x2006;" horiz-adv-x="296" />
<glyph unicode="&#x2007;" horiz-adv-x="296" />
<glyph unicode="&#x2008;" horiz-adv-x="222" />
<glyph unicode="&#x2009;" horiz-adv-x="356" />
<glyph unicode="&#x200a;" horiz-adv-x="98" />
<glyph unicode="&#x2010;" horiz-adv-x="690" d="M86 430v250h516v-250h-516z" />
<glyph unicode="&#x2011;" horiz-adv-x="690" d="M86 430v250h516v-250h-516z" />
<glyph unicode="&#x2012;" horiz-adv-x="690" d="M86 430v250h516v-250h-516z" />
<glyph unicode="&#x2013;" d="M0 473v275h1126v-275h-1126z" />
<glyph unicode="&#x2014;" horiz-adv-x="2048" d="M217 473v275h1614v-275h-1614z" />
<glyph unicode="&#x2018;" horiz-adv-x="577" d="M91 1053.5q-1 103.5 64.5 234.5t225.5 266l127 -112q-53 -57 -83 -103.5t-39 -85.5t2 -72.5t40 -66.5q33 -39 39 -89t-13.5 -95t-62.5 -76t-106 -31q-84 0 -138.5 63.5t-55.5 167z" />
<glyph unicode="&#x2019;" horiz-adv-x="577" d="M68 918q109 115 123 188.5t-41 138.5q-35 39 -40.5 89t13 95.5t62 76t106.5 30.5q84 0 139 -63.5t55 -167t-65.5 -235.5t-224.5 -267z" />
<glyph unicode="&#x201a;" horiz-adv-x="577" d="M68 -266q55 57 84.5 104t38 86t-3 72t-37.5 65q-35 39 -40.5 89.5t13 95.5t62 75.5t106.5 30.5q84 0 139 -63.5t55 -167t-65.5 -234.5t-224.5 -266z" />
<glyph unicode="&#x201c;" horiz-adv-x="1062" d="M91 1053.5q-1 103.5 64.5 234.5t225.5 266l127 -112q-53 -57 -83 -103.5t-39 -85.5t2 -72.5t40 -66.5q33 -39 39 -89t-13.5 -95t-62.5 -76t-106 -31q-84 0 -138.5 63.5t-55.5 167zM578 1053.5q0 103.5 65.5 234.5t224.5 266l127 -112q-109 -115 -124 -188.5t42 -139.5 q33 -39 39 -89t-12 -95t-61 -76t-107 -31q-84 0 -139 63.5t-55 167z" />
<glyph unicode="&#x201d;" horiz-adv-x="1062" d="M68 918q109 115 123 188.5t-41 138.5q-35 39 -40.5 89t13 95.5t62 76t106.5 30.5q84 0 139 -63.5t55 -167t-65.5 -235.5t-224.5 -267zM553 918q109 115 124 188.5t-42 138.5q-33 39 -39 89t13.5 95.5t61 76t107.5 30.5q82 0 137.5 -63.5t55.5 -167t-65.5 -235.5 t-225.5 -267z" />
<glyph unicode="&#x201e;" horiz-adv-x="1062" d="M68 -266q55 57 84.5 104t38 86t-3 72t-37.5 65q-35 39 -40.5 89.5t13 95.5t62 75.5t106.5 30.5q84 0 139 -63.5t55 -167t-65.5 -234.5t-224.5 -266zM553 -266q55 57 85 104t39 86t-2 72t-40 65q-33 39 -39 89.5t13.5 95.5t61 75.5t107.5 30.5q82 0 137.5 -63.5t55.5 -167 t-65.5 -234.5t-225.5 -266z" />
<glyph unicode="&#x2022;" horiz-adv-x="868" d="M94 608q0 70 26.5 132.5t73 108.5t107.5 72.5t133 26.5q70 0 132.5 -26.5t108.5 -72.5t72.5 -108.5t26.5 -132.5t-26.5 -132t-72.5 -108t-108.5 -73t-132.5 -27q-72 0 -133 27t-107.5 73t-73 108.5t-26.5 131.5z" />
<glyph unicode="&#x2026;" horiz-adv-x="1560" d="M90 160q0 76 53.5 129t130.5 53q76 0 130.5 -53t54.5 -129q0 -78 -54.5 -131.5t-130.5 -53.5q-78 0 -131 53.5t-53 131.5zM592 160q0 76 54 129t130 53q78 0 131.5 -53t53.5 -129q0 -78 -53.5 -131.5t-131.5 -53.5q-76 0 -130 53.5t-54 131.5zM1096 160q0 76 53 129 t131 53q76 0 130 -53t54 -129q0 -78 -54 -131.5t-130 -53.5q-78 0 -131 53.5t-53 131.5z" />
<glyph unicode="&#x202f;" horiz-adv-x="356" />
<glyph unicode="&#x2039;" horiz-adv-x="638" d="M66 598l231 416l240 -109l-175 -307l179 -301l-250 -111z" />
<glyph unicode="&#x203a;" horiz-adv-x="638" d="M96 903l252 111l225 -412l-231 -416l-242 109l174 307z" />
<glyph unicode="&#x205f;" horiz-adv-x="445" />
<glyph unicode="&#x20ac;" d="M23 414v188h137v47v40t2 42h-139v189h170q25 94 70.5 174t117.5 138t171 92t228 34q72 0 148 -15.5t139 -37.5l-72 -246q-47 23 -109.5 37t-121.5 14q-100 0 -160.5 -51t-89.5 -139h305v-189h-340q0 -14 -1 -28.5t-1 -30.5v-35t2 -35h340v-188h-309q29 -104 92.5 -147.5 t167.5 -43.5q63 0 120.5 13.5t115.5 39.5l69 -237q-74 -31 -165 -48.5t-183 -17.5q-111 0 -202 23.5t-160.5 76t-116.5 136.5t-70 205h-155z" />
<glyph unicode="&#x2122;" horiz-adv-x="1398" d="M39 1194v188h471v-188h-125v-387h-215v387h-131zM514 807l94 575h252l55 -208l15 -78l12 73l51 213h256l99 -575h-228l-30 213l-11 88l-14 -84l-51 -217h-195l-51 223l-14 78l-4 -74l-31 -227h-205z" />
<glyph unicode="&#x25fc;" horiz-adv-x="1013" d="M0 0v1014h1014v-1014h-1014z" />
<glyph unicode="&#xfb01;" horiz-adv-x="1226" d="M18 778v240h156v31q0 236 125 350t395 114q96 0 173 -9t163 -27l-51 -260q-59 16 -126 27t-126 11q-129 0 -185.5 -47t-56.5 -145v-45h621v-1018h-313v778h-308v-778h-311v778h-156z" />
<glyph unicode="&#xfb02;" horiz-adv-x="1226" d="M18 778v240h156v86q0 90 28.5 164.5t91 129t163 85t241.5 30.5q80 0 186.5 -10t221.5 -28v-1475h-313v1247q-29 6 -58.5 8t-62.5 2q-186 0 -187 -161v-78h191v-240h-191v-778h-311v778h-156z" />
</font>
</defs>
</svg>
